<svg width="49" height="49" viewBox="0 0 49 49" fill="none" xmlns="http://www.w3.org/2000/svg">
<path d="M32.7109 36.5L24.71 31.5L16.7109 36.5V14.5C16.7109 14.2348 16.8163 13.9804 17.0038 13.7929C17.1914 13.6054 17.4457 13.5 17.7109 13.5H31.7109C31.9762 13.5 32.2305 13.6054 32.418 13.7929C32.6056 13.9804 32.7109 14.2348 32.7109 14.5V36.5Z" fill="#455A64" fill-opacity="0.2"/>
<path d="M24.445 31.076L17.2109 35.5978V14.5C17.2109 14.3674 17.2636 14.2402 17.3574 14.1464C17.4512 14.0527 17.5783 14 17.7109 14H31.7109C31.8435 14 31.9707 14.0527 32.0645 14.1464C32.1583 14.2402 32.2109 14.3674 32.2109 14.5V35.5979L24.975 31.076C24.8128 30.9747 24.6071 30.9747 24.445 31.076Z" stroke="#455A64" stroke-opacity="0.2" stroke-linecap="round" stroke-linejoin="round"/>
<rect x="1.21094" y="1" width="47" height="47" rx="11.5" stroke="#23262F" stroke-opacity="0.2"/>
</svg>
