<svg width="178" height="190" viewBox="0 0 178 190" fill="none" xmlns="http://www.w3.org/2000/svg">
<path fill-rule="evenodd" clip-rule="evenodd" d="M132.885 79.0052C132.835 75.3467 132.355 71.6566 131.395 67.9412C128.029 54.9028 113.01 46.5323 97.025 44.5642C81.0464 42.5961 64.4299 47.0747 58.0258 58.4163C54.3627 64.9008 53.8575 70.4896 55.3543 75.2016C56.8448 79.8883 60.3813 83.7739 65.1812 86.8017C78.5641 95.2353 102.002 96.9574 112.694 93.4313C117.639 91.7975 122.471 89.8296 127.176 87.5777C124.485 102.319 114.462 116.285 101.086 128.869C72.0148 156.22 26.9022 176.979 2.33427 184.612C1.0143 185.022 0.281618 186.422 0.692135 187.74C1.10265 189.059 2.5047 189.797 3.82468 189.387C28.8789 181.603 74.8696 160.402 104.515 132.509C119.831 118.101 130.744 101.884 132.607 84.8337C167.23 66.358 195.663 32.838 219.972 4.62918C220.875 3.58838 220.755 2.00504 219.707 1.10302C218.658 0.2073 217.079 0.320793 216.176 1.3679C192.859 28.4224 165.796 60.6052 132.885 79.0052ZM127.852 81.6861C128.041 77.5734 127.637 73.3975 126.544 69.1839C123.633 57.8991 110.25 51.2254 96.4122 49.5223C87.9303 48.4815 79.2085 49.3394 72.3687 52.3924C68.0677 54.31 64.5244 57.0917 62.3897 60.8764C59.5856 65.8407 58.9792 70.086 60.1287 73.6878C61.2781 77.3148 64.1331 80.2289 67.853 82.5691C80.0486 90.2584 101.389 91.8923 111.121 88.6816C116.862 86.7892 122.433 84.43 127.852 81.6861Z" fill="#AEFF63" fill-opacity="0.8"/>
</svg>
