<svg width="176" height="124" viewBox="0 0 176 124" fill="none" xmlns="http://www.w3.org/2000/svg">
<path fill-rule="evenodd" clip-rule="evenodd" d="M20.3552 23.5708C18.5024 25.7339 16.8405 28.0648 15.427 30.5463C14.7967 31.6511 13.6888 33.999 13.5169 36.0125C13.3259 38.1576 14.0612 39.9674 15.9522 40.9206C18.4641 42.1846 20.4698 42.0529 22.017 41.2882C23.5069 40.5539 24.672 39.1108 25.4074 37.176C26.8114 33.4779 26.6012 27.826 25.8658 24.6007C27.8428 22.5769 30.0108 20.7415 32.3316 19.1099C49.6183 6.95809 74.9754 11.4389 94.4874 29.6083C101.316 35.9699 104.602 49.3297 106.311 63.7441C108.976 86.1878 107.457 111.255 107.247 118.599C107.199 120.413 107.371 121.489 107.467 121.704C107.916 122.762 108.708 123.036 109.262 123.141C110.064 123.283 110.704 123.131 111.22 122.866C111.917 122.502 112.49 121.861 112.758 120.873C112.901 120.327 112.939 119.568 112.92 118.757C112.901 118.196 112.786 117.582 112.901 117.179C113.646 114.6 114.544 112.081 115.422 109.545C118.354 101.018 122.146 93.0279 126.358 85.047C139.738 59.6879 152.679 32.8933 174.617 13.5726C175.601 12.7057 175.697 11.2067 174.818 10.2289C173.949 9.25107 172.44 9.16198 171.447 10.0299C149.069 29.7324 135.775 56.9884 122.127 82.8497C118.545 89.6386 115.26 96.437 112.528 103.548C112.805 90.9689 112.7 73.5565 110.38 58.1501C108.317 44.4481 104.391 32.339 97.7536 26.1546C76.3793 6.25029 48.5009 1.93252 29.5715 15.245C27.5467 16.6701 25.6176 18.2373 23.8221 19.9371C13.9181 2.19501 -7.28447 -4.91609 -26.0229 3.56979C-27.2262 4.11272 -27.7515 5.51883 -27.2071 6.70795C-26.6532 7.89708 -25.2397 8.42202 -24.0364 7.87909C-7.1508 0.232704 11.9984 7.05663 20.3552 23.5708ZM21.74 29.5107C20.9664 30.5946 20.2501 31.7184 19.5815 32.88C19.2282 33.5035 18.6169 34.7021 18.359 35.8751C18.3017 36.1499 18.2922 36.58 18.2922 36.779C18.9512 37.1012 19.4669 37.2566 19.8871 37.0472C20.4124 36.7895 20.6799 36.183 20.9378 35.5056C21.5872 33.8057 21.7973 31.5525 21.74 29.5107Z" fill="#A4A8FF"/>
</svg>
