          <svg
            width="30"
            height="29"
            viewBox="0 0 30 29"
            fill="none"
            xmlns="http://www.w3.org/2000/svg"
          >
            <g filter="url(#filter0_d_39_25753)">
              <path
                d="M25.1341 7.99194C25.0405 7.69796 24.8604 7.43902 24.6174 7.24892C24.3744 7.05882 24.0797 6.94638 23.7718 6.92627L18.204 6.53662L16.1385 1.33569C16.0268 1.04816 15.8307 0.801101 15.5761 0.626886C15.3216 0.452671 15.0203 0.359428 14.7118 0.359375H14.7103C14.4023 0.359924 14.1016 0.453405 13.8476 0.627594C13.5936 0.801783 13.398 1.04857 13.2865 1.33569L11.1903 6.56665L5.65318 6.92627C5.3453 6.94638 5.05063 7.05882 4.80761 7.24892C4.5646 7.43902 4.38452 7.69796 4.29088 7.99194C4.19209 8.2901 4.18537 8.61109 4.27159 8.91313C4.35781 9.21516 4.53298 9.48423 4.77428 9.6853L9.03404 13.2859L7.76695 18.27C7.67962 18.6057 7.69568 18.96 7.81303 19.2865C7.93039 19.6129 8.14357 19.8963 8.42467 20.0996C8.69606 20.2971 9.02061 20.4082 9.35607 20.4187C9.69153 20.4291 10.0224 20.3384 10.3055 20.1582L14.7001 17.3743C14.7059 17.3699 14.7118 17.3669 14.725 17.3743L19.4535 20.3699C19.7102 20.5339 20.0104 20.6166 20.3149 20.6072C20.6194 20.5978 20.9139 20.4967 21.16 20.3171C21.4147 20.133 21.6079 19.8763 21.7143 19.5806C21.8207 19.2848 21.8353 18.9638 21.7562 18.6597L20.41 13.2148L24.6507 9.6853C24.892 9.48423 25.0672 9.21516 25.1534 8.91313C25.2396 8.61109 25.2329 8.2901 25.1341 7.99194Z"
                fill="rgba(35, 38, 47, 0.1)"
              />
            </g>
            <defs>
              <filter
                id="filter0_d_39_25753"
                x="0.211517"
                y="0.359375"
                width="29.002"
                height="28.249"
                filterUnits="userSpaceOnUse"
                color-interpolation-filters="sRGB"
              >
                <feFlood flood-opacity="0" result="BackgroundImageFix" />
                <feColorMatrix
                  in="SourceAlpha"
                  type="matrix"
                  values="0 0 0 0 0 0 0 0 0 0 0 0 0 0 0 0 0 0 127 0"
                  result="hardAlpha"
                />
                <feOffset dy="4" />
                <feGaussianBlur stdDeviation="2" />
                <feComposite in2="hardAlpha" operator="out" />
                <feColorMatrix
                  type="matrix"
                  values="0 0 0 0 1 0 0 0 0 0.8 0 0 0 0 0.282353 0 0 0 0.25 0"
                />
                <feBlend
                  mode="normal"
                  in2="BackgroundImageFix"
                  result="effect1_dropShadow_39_25753"
                />
                <feBlend
                  mode="normal"
                  in="SourceGraphic"
                  in2="effect1_dropShadow_39_25753"
                  result="shape"
                />
              </filter>
            </defs>
          </svg>