<svg width="401" height="129" viewBox="0 0 401 129" fill="none" xmlns="http://www.w3.org/2000/svg">
<path d="M0.710938 24.3389C0.710938 11.084 11.4561 0.338867 24.7109 0.338867H376.711C389.966 0.338867 400.711 11.084 400.711 24.3389V104.339C400.711 117.594 389.966 128.339 376.711 128.339H24.7109C11.4561 128.339 0.710938 117.594 0.710938 104.339V24.3389Z" fill="#F8F8F8"/>
<path fill-rule="evenodd" clip-rule="evenodd" d="M196.348 19.7339C193.771 19.7339 192.106 21.5009 192.106 24.2269V32.4409C192.106 33.2059 192.248 33.8889 192.491 34.4799C192.502 34.4673 192.731 34.1885 193.029 33.8246C193.613 33.1136 194.462 32.0782 194.468 32.0729C195.16 31.2829 196.459 30.1049 198.164 30.8179C198.538 30.9728 198.87 31.185 199.176 31.3803C199.206 31.3994 199.235 31.4182 199.264 31.4369C199.837 31.8199 200.174 31.9999 200.524 31.9699C200.669 31.9499 200.805 31.9069 200.934 31.8269C201.421 31.5269 202.683 29.7393 203.06 29.2039C203.116 29.1254 203.152 29.0739 203.164 29.0579C204.254 27.6379 205.934 27.2579 207.334 28.0979C207.522 28.2099 208.869 29.1509 209.315 29.5289V24.2269C209.315 21.5009 207.65 19.7339 205.064 19.7339H196.348ZM205.064 18.3389C208.441 18.3389 210.71 20.7009 210.71 24.2269V32.4409C210.71 32.5295 210.701 32.6127 210.692 32.6958C210.685 32.7542 210.679 32.8126 210.675 32.8729C210.673 32.9093 210.672 32.9457 210.671 32.9821C210.67 33.0307 210.668 33.0793 210.664 33.1279C210.662 33.1469 210.659 33.1651 210.655 33.1834C210.651 33.2016 210.647 33.2199 210.645 33.2389C210.612 33.5529 210.561 33.8529 210.49 34.1439C210.474 34.2166 210.454 34.2867 210.435 34.3574L210.43 34.3729C210.35 34.6549 210.256 34.9239 210.143 35.1809C210.124 35.2241 210.103 35.2662 210.082 35.3083C210.068 35.3364 210.054 35.3645 210.04 35.3929C209.918 35.6379 209.786 35.8729 209.633 36.0909C209.605 36.1312 209.575 36.169 209.545 36.2069C209.525 36.232 209.505 36.257 209.485 36.2829C209.326 36.4889 209.16 36.6859 208.972 36.8649C208.935 36.9006 208.894 36.9332 208.854 36.9659C208.828 36.9863 208.803 37.0067 208.778 37.0279C208.585 37.1939 208.388 37.3529 208.171 37.4889C208.124 37.5186 208.074 37.5436 208.024 37.5684C207.991 37.5845 207.959 37.6006 207.927 37.6179C207.706 37.7399 207.483 37.8589 207.24 37.9509C207.182 37.9731 207.12 37.9891 207.057 38.0052C207.013 38.0167 206.969 38.0282 206.925 38.0419C206.904 38.0486 206.882 38.0553 206.86 38.062C206.643 38.1295 206.427 38.1969 206.193 38.2369C206.058 38.2606 205.914 38.2697 205.77 38.2788C205.708 38.2828 205.646 38.2867 205.584 38.2919C205.518 38.2968 205.453 38.3048 205.388 38.3128C205.282 38.3258 205.176 38.3389 205.064 38.3389H196.348C195.972 38.3389 195.613 38.3009 195.266 38.2439C195.253 38.2419 195.241 38.2399 195.229 38.2379C193.876 38.0049 192.753 37.3519 191.966 36.3669C191.961 36.3669 191.959 36.3632 191.956 36.3583C191.954 36.3551 191.952 36.3514 191.948 36.3479C191.157 35.3519 190.71 34.0129 190.71 32.4409V24.2269C190.71 20.7009 192.981 18.3389 196.348 18.3389H205.064ZM199.711 24.8534C199.711 26.2084 198.577 27.3385 197.216 27.3385C196.019 27.3385 194.999 26.4641 194.77 25.3321C194.732 25.1622 194.711 24.9876 194.711 24.8071C194.711 23.4425 195.819 22.3385 197.19 22.3385C197.887 22.3385 198.519 22.6318 198.972 23.0999C199.426 23.5516 199.711 24.174 199.711 24.8534Z" fill="#23262F"/>
<path d="M140.89 56.3389C140.458 53.9525 138.549 52.5434 136.208 52.5434C133.231 52.5434 131.072 54.8389 131.072 58.5207C131.072 62.2025 133.231 64.498 136.208 64.498C138.549 64.498 140.458 63.0889 140.89 60.7025H139.481C139.14 62.3161 137.754 63.1798 136.208 63.1798C134.094 63.1798 132.435 61.5434 132.435 58.5207C132.435 55.498 134.094 53.8616 136.208 53.8616C137.754 53.8616 139.14 54.7252 139.481 56.3389H140.89ZM144.326 52.7025H142.985V64.3389H144.326V52.7025ZM146.782 64.3389H148.123V55.6116H146.782V64.3389ZM147.464 54.157C147.987 54.157 148.418 53.748 148.418 53.248C148.418 52.748 147.987 52.3389 147.464 52.3389C146.941 52.3389 146.509 52.748 146.509 53.248C146.509 53.748 146.941 54.157 147.464 54.157ZM154.124 64.5207C156.056 64.5207 157.329 63.3389 157.556 61.7934H156.215C155.965 62.748 155.17 63.3161 154.124 63.3161C152.533 63.3161 151.511 61.998 151.511 59.9752C151.511 57.998 152.556 56.7025 154.124 56.7025C155.306 56.7025 156.011 57.4298 156.215 58.2252H157.556C157.329 56.5889 155.942 55.498 154.102 55.498C151.738 55.498 150.17 57.3616 150.17 60.0207C150.17 62.6343 151.67 64.5207 154.124 64.5207ZM159.516 64.3389H160.857V61.0718L161.795 60.2025L165.062 64.3389H166.766L162.806 59.3389L166.494 55.6116H164.835L161.016 59.498H160.857V52.7025H159.516V64.3389ZM176.515 55.6116H174.651V53.5207H173.31V55.6116H171.992V56.748H173.31V62.2025C173.31 63.7252 174.538 64.4525 175.674 64.4525C176.174 64.4525 176.492 64.3616 176.674 64.2934L176.401 63.0889C176.288 63.1116 176.106 63.157 175.81 63.157C175.219 63.157 174.651 62.9752 174.651 61.8389V56.748H176.515V55.6116ZM181.984 64.5207C184.347 64.5207 185.938 62.7252 185.938 60.0207C185.938 57.2934 184.347 55.498 181.984 55.498C179.62 55.498 178.029 57.2934 178.029 60.0207C178.029 62.7252 179.62 64.5207 181.984 64.5207ZM181.984 63.3161C180.188 63.3161 179.37 61.7707 179.37 60.0207C179.37 58.2707 180.188 56.7025 181.984 56.7025C183.779 56.7025 184.597 58.2707 184.597 60.0207C184.597 61.7707 183.779 63.3161 181.984 63.3161ZM192.667 64.3389H193.962V62.998H194.121C194.417 63.4752 194.985 64.5207 196.667 64.5207C198.849 64.5207 200.371 62.7707 200.371 59.998C200.371 57.248 198.849 55.498 196.644 55.498C194.94 55.498 194.417 56.5434 194.121 56.998H194.008V52.7025H192.667V64.3389ZM193.985 59.9752C193.985 58.0207 194.849 56.7025 196.485 56.7025C198.19 56.7025 199.031 58.1343 199.031 59.9752C199.031 61.8389 198.167 63.3161 196.485 63.3161C194.871 63.3161 193.985 61.9525 193.985 59.9752ZM202.423 64.3389H203.763V58.8161C203.763 57.6343 204.695 56.7707 205.968 56.7707C206.326 56.7707 206.695 56.8389 206.786 56.8616V55.498C206.633 55.4866 206.281 55.4752 206.082 55.4752C205.036 55.4752 204.127 56.0661 203.809 56.9298H203.718V55.6116H202.423V64.3389ZM211.656 64.5207C214.019 64.5207 215.61 62.7252 215.61 60.0207C215.61 57.2934 214.019 55.498 211.656 55.498C209.292 55.498 207.701 57.2934 207.701 60.0207C207.701 62.7252 209.292 64.5207 211.656 64.5207ZM211.656 63.3161C209.86 63.3161 209.042 61.7707 209.042 60.0207C209.042 58.2707 209.86 56.7025 211.656 56.7025C213.451 56.7025 214.269 58.2707 214.269 60.0207C214.269 61.7707 213.451 63.3161 211.656 63.3161ZM219.337 64.3389H220.656L222.565 57.6343H222.701L224.61 64.3389H225.928L228.587 55.6116H227.178L225.292 62.2707H225.201L223.36 55.6116H221.928L220.065 62.2934H219.974L218.087 55.6116H216.678L219.337 64.3389ZM236.542 57.5661C236.121 56.3275 235.178 55.498 233.451 55.498C231.61 55.498 230.246 56.5434 230.246 58.0207C230.246 59.2252 230.962 60.032 232.565 60.407L234.019 60.748C234.9 60.9525 235.315 61.373 235.315 61.9752C235.315 62.7252 234.519 63.3389 233.269 63.3389C232.173 63.3389 231.485 62.8673 231.246 61.9298L229.974 62.248C230.286 63.7309 231.508 64.5207 233.292 64.5207C235.32 64.5207 236.701 63.4127 236.701 61.907C236.701 60.6911 235.94 59.9241 234.383 59.5434L233.087 59.2252C232.053 58.9695 231.587 58.623 231.587 57.9525C231.587 57.2025 232.383 56.657 233.451 56.657C234.621 56.657 235.104 57.3048 235.337 57.907L236.542 57.5661ZM242.379 64.5207C244.151 64.5207 245.447 63.6343 245.856 62.3161L244.56 61.9525C244.219 62.8616 243.43 63.3161 242.379 63.3161C240.805 63.3161 239.719 62.2991 239.657 60.4298H245.992V59.8616C245.992 56.6116 244.06 55.498 242.242 55.498C239.879 55.498 238.31 57.3616 238.31 60.0434C238.31 62.7252 239.856 64.5207 242.379 64.5207ZM239.657 59.2707C239.748 57.9127 240.708 56.7025 242.242 56.7025C243.697 56.7025 244.629 57.7934 244.629 59.2707H239.657ZM256.077 64.5207C258.441 64.5207 260.032 62.7252 260.032 60.0207C260.032 57.2934 258.441 55.498 256.077 55.498C253.714 55.498 252.123 57.2934 252.123 60.0207C252.123 62.7252 253.714 64.5207 256.077 64.5207ZM256.077 63.3161C254.282 63.3161 253.464 61.7707 253.464 60.0207C253.464 58.2707 254.282 56.7025 256.077 56.7025C257.873 56.7025 258.691 58.2707 258.691 60.0207C258.691 61.7707 257.873 63.3161 256.077 63.3161ZM262.079 64.3389H263.42V58.8161C263.42 57.6343 264.352 56.7707 265.624 56.7707C265.982 56.7707 266.352 56.8389 266.442 56.8616V55.498C266.289 55.4866 265.937 55.4752 265.738 55.4752C264.692 55.4752 263.783 56.0661 263.465 56.9298H263.374V55.6116H262.079V64.3389ZM118.585 84.5207C120.267 84.5207 120.835 83.4752 121.131 82.998H121.29V84.3389H122.585V72.7025H121.244V76.998H121.131C120.835 76.5434 120.312 75.498 118.608 75.498C116.403 75.498 114.881 77.248 114.881 79.998C114.881 82.7707 116.403 84.5207 118.585 84.5207ZM118.767 83.3161C117.085 83.3161 116.222 81.8389 116.222 79.9752C116.222 78.1343 117.062 76.7025 118.767 76.7025C120.403 76.7025 121.267 78.0207 121.267 79.9752C121.267 81.9525 120.381 83.3161 118.767 83.3161ZM125.227 84.3389H126.568V78.8161C126.568 77.6343 127.5 76.7707 128.773 76.7707C129.131 76.7707 129.5 76.8389 129.591 76.8616V75.498C129.438 75.4866 129.085 75.4752 128.886 75.4752C127.841 75.4752 126.932 76.0661 126.614 76.9298H126.523V75.6116H125.227V84.3389ZM133.749 84.5434C135.271 84.5434 136.067 83.7252 136.339 83.157H136.408V84.3389H137.749V78.5889C137.749 75.8161 135.635 75.498 134.521 75.498C133.203 75.498 131.703 75.9525 131.021 77.5434L132.294 77.998C132.589 77.3616 133.288 76.6798 134.567 76.6798C135.8 76.6798 136.408 77.3332 136.408 78.4525V78.498C136.408 79.1457 135.749 79.0889 134.158 79.2934C132.538 79.5036 130.771 79.8616 130.771 81.8616C130.771 83.5661 132.089 84.5434 133.749 84.5434ZM133.953 83.3389C132.885 83.3389 132.112 82.8616 132.112 81.9298C132.112 80.907 133.044 80.5889 134.089 80.4525C134.658 80.3843 136.18 80.2252 136.408 79.9525V81.1798C136.408 82.2707 135.544 83.3389 133.953 83.3389ZM143.719 87.7934C145.81 87.7934 147.491 86.8389 147.491 84.5889V75.6116H146.196V76.998H146.06C145.764 76.5434 145.219 75.498 143.514 75.498C141.31 75.498 139.787 77.248 139.787 79.9298C139.787 82.657 141.378 84.2025 143.491 84.2025C145.196 84.2025 145.741 83.2025 146.037 82.7252H146.151V84.498C146.151 85.9525 145.128 86.6116 143.719 86.6116C142.134 86.6116 141.577 85.7764 141.219 85.2934L140.151 86.0434C140.696 86.9582 141.77 87.7934 143.719 87.7934ZM143.673 82.998C141.991 82.998 141.128 81.7252 141.128 79.907C141.128 78.1343 141.969 76.7025 143.673 76.7025C145.31 76.7025 146.173 78.0207 146.173 79.907C146.173 81.8389 145.287 82.998 143.673 82.998ZM157.014 84.5434C158.537 84.5434 159.332 83.7252 159.605 83.157H159.673V84.3389H161.014V78.5889C161.014 75.8161 158.901 75.498 157.787 75.498C156.469 75.498 154.969 75.9525 154.287 77.5434L155.56 77.998C155.855 77.3616 156.554 76.6798 157.832 76.6798C159.065 76.6798 159.673 77.3332 159.673 78.4525V78.498C159.673 79.1457 159.014 79.0889 157.423 79.2934C155.804 79.5036 154.037 79.8616 154.037 81.8616C154.037 83.5661 155.355 84.5434 157.014 84.5434ZM157.219 83.3389C156.151 83.3389 155.378 82.8616 155.378 81.9298C155.378 80.907 156.31 80.5889 157.355 80.4525C157.923 80.3843 159.446 80.2252 159.673 79.9525V81.1798C159.673 82.2707 158.81 83.3389 157.219 83.3389ZM164.803 79.0889C164.803 77.5661 165.746 76.7025 167.03 76.7025C168.274 76.7025 169.03 77.515 169.03 78.8843V84.3389H170.371V78.7934C170.371 76.5661 169.183 75.498 167.416 75.498C166.098 75.498 165.28 76.0889 164.871 76.9752H164.757V75.6116H163.462V84.3389H164.803V79.0889ZM176.116 84.5207C177.798 84.5207 178.366 83.4752 178.662 82.998H178.821V84.3389H180.116V72.7025H178.776V76.998H178.662C178.366 76.5434 177.844 75.498 176.139 75.498C173.935 75.498 172.412 77.248 172.412 79.998C172.412 82.7707 173.935 84.5207 176.116 84.5207ZM176.298 83.3161C174.616 83.3161 173.753 81.8389 173.753 79.9752C173.753 78.1343 174.594 76.7025 176.298 76.7025C177.935 76.7025 178.798 78.0207 178.798 79.9752C178.798 81.9525 177.912 83.3161 176.298 83.3161ZM190.554 84.5207C192.236 84.5207 192.804 83.4752 193.099 82.998H193.259V84.3389H194.554V72.7025H193.213V76.998H193.099C192.804 76.5434 192.281 75.498 190.577 75.498C188.372 75.498 186.849 77.248 186.849 79.998C186.849 82.7707 188.372 84.5207 190.554 84.5207ZM190.736 83.3161C189.054 83.3161 188.19 81.8389 188.19 79.9752C188.19 78.1343 189.031 76.7025 190.736 76.7025C192.372 76.7025 193.236 78.0207 193.236 79.9752C193.236 81.9525 192.349 83.3161 190.736 83.3161ZM197.196 84.3389H198.537V78.8161C198.537 77.6343 199.469 76.7707 200.741 76.7707C201.099 76.7707 201.469 76.8389 201.56 76.8616V75.498C201.406 75.4866 201.054 75.4752 200.855 75.4752C199.81 75.4752 198.901 76.0661 198.582 76.9298H198.491V75.6116H197.196V84.3389ZM206.429 84.5207C208.793 84.5207 210.384 82.7252 210.384 80.0207C210.384 77.2934 208.793 75.498 206.429 75.498C204.065 75.498 202.474 77.2934 202.474 80.0207C202.474 82.7252 204.065 84.5207 206.429 84.5207ZM206.429 83.3161C204.634 83.3161 203.815 81.7707 203.815 80.0207C203.815 78.2707 204.634 76.7025 206.429 76.7025C208.224 76.7025 209.043 78.2707 209.043 80.0207C209.043 81.7707 208.224 83.3161 206.429 83.3161ZM212.43 87.6116H213.771V82.998H213.885C214.18 83.4752 214.749 84.5207 216.43 84.5207C218.612 84.5207 220.135 82.7707 220.135 79.998C220.135 77.248 218.612 75.498 216.408 75.498C214.703 75.498 214.18 76.5434 213.885 76.998H213.726V75.6116H212.43V87.6116ZM213.749 79.9752C213.749 78.0207 214.612 76.7025 216.249 76.7025C217.953 76.7025 218.794 78.1343 218.794 79.9752C218.794 81.8389 217.93 83.3161 216.249 83.3161C214.635 83.3161 213.749 81.9525 213.749 79.9752ZM230.476 75.6116H228.612V73.5207H227.271V75.6116H225.953V76.748H227.271V82.2025C227.271 83.7252 228.499 84.4525 229.635 84.4525C230.135 84.4525 230.453 84.3616 230.635 84.2934L230.362 83.0889C230.249 83.1116 230.067 83.157 229.771 83.157C229.18 83.157 228.612 82.9752 228.612 81.8389V76.748H230.476V75.6116ZM234.021 79.0889C234.021 77.5661 234.993 76.7025 236.317 76.7025C237.578 76.7025 238.339 77.498 238.339 78.8843V84.3389H239.68V78.7934C239.68 76.5491 238.487 75.498 236.703 75.498C235.328 75.498 234.544 76.0718 234.135 76.9752H234.021V72.7025H232.68V84.3389H234.021V79.0889ZM245.793 84.5207C247.565 84.5207 248.861 83.6343 249.27 82.3161L247.974 81.9525C247.634 82.8616 246.844 83.3161 245.793 83.3161C244.219 83.3161 243.134 82.2991 243.071 80.4298H249.406V79.8616C249.406 76.6116 247.474 75.498 245.656 75.498C243.293 75.498 241.724 77.3616 241.724 80.0434C241.724 82.7252 243.27 84.5207 245.793 84.5207ZM243.071 79.2707C243.162 77.9127 244.122 76.7025 245.656 76.7025C247.111 76.7025 248.043 77.7934 248.043 79.2707H243.071ZM257.287 72.7025H255.946V84.3389H257.287V72.7025ZM263.288 84.5207C265.652 84.5207 267.243 82.7252 267.243 80.0207C267.243 77.2934 265.652 75.498 263.288 75.498C260.925 75.498 259.334 77.2934 259.334 80.0207C259.334 82.7252 260.925 84.5207 263.288 84.5207ZM263.288 83.3161C261.493 83.3161 260.675 81.7707 260.675 80.0207C260.675 78.2707 261.493 76.7025 263.288 76.7025C265.084 76.7025 265.902 78.2707 265.902 80.0207C265.902 81.7707 265.084 83.3161 263.288 83.3161ZM272.812 87.7934C274.903 87.7934 276.585 86.8389 276.585 84.5889V75.6116H275.29V76.998H275.153C274.858 76.5434 274.312 75.498 272.608 75.498C270.403 75.498 268.881 77.248 268.881 79.9298C268.881 82.657 270.472 84.2025 272.585 84.2025C274.29 84.2025 274.835 83.2025 275.131 82.7252H275.244V84.498C275.244 85.9525 274.222 86.6116 272.812 86.6116C271.227 86.6116 270.67 85.7764 270.312 85.2934L269.244 86.0434C269.79 86.9582 270.864 87.7934 272.812 87.7934ZM272.767 82.998C271.085 82.998 270.222 81.7252 270.222 79.907C270.222 78.1343 271.062 76.7025 272.767 76.7025C274.403 76.7025 275.267 78.0207 275.267 79.907C275.267 81.8389 274.381 82.998 272.767 82.998ZM282.585 84.5207C284.949 84.5207 286.54 82.7252 286.54 80.0207C286.54 77.2934 284.949 75.498 282.585 75.498C280.222 75.498 278.631 77.2934 278.631 80.0207C278.631 82.7252 280.222 84.5207 282.585 84.5207ZM282.585 83.3161C280.79 83.3161 279.972 81.7707 279.972 80.0207C279.972 78.2707 280.79 76.7025 282.585 76.7025C284.381 76.7025 285.199 78.2707 285.199 80.0207C285.199 81.7707 284.381 83.3161 282.585 83.3161Z" fill="#23262F" fill-opacity="0.8"/>
<path opacity="0.5" d="M92.256 99.6116V108.339H93.2447V101.708H93.3299L96.0572 108.339H97.0117L99.739 101.708H99.8242V108.339H100.813V99.6116H99.5515L96.5856 106.856H96.4833L93.5174 99.6116H92.256ZM106.92 105.663C106.92 106.89 105.983 107.453 105.233 107.453C104.398 107.453 103.801 106.839 103.801 105.884V101.793H102.795V105.953C102.795 107.623 103.682 108.424 104.909 108.424C105.898 108.424 106.545 107.896 106.852 107.231H106.92V108.339H107.926V101.793H106.92V105.663ZM114.404 103.259C114.089 102.33 113.382 101.708 112.086 101.708C110.706 101.708 109.683 102.492 109.683 103.6C109.683 104.504 110.22 105.109 111.422 105.39L112.512 105.646C113.173 105.799 113.484 106.114 113.484 106.566C113.484 107.129 112.887 107.589 111.95 107.589C111.127 107.589 110.612 107.235 110.433 106.532L109.478 106.771C109.713 107.883 110.629 108.475 111.967 108.475C113.488 108.475 114.524 107.644 114.524 106.515C114.524 105.603 113.953 105.028 112.785 104.742L111.814 104.504C111.038 104.312 110.689 104.052 110.689 103.549C110.689 102.987 111.285 102.578 112.086 102.578C112.964 102.578 113.326 103.063 113.501 103.515L114.404 103.259ZM118.884 101.793H117.487V100.225H116.481V101.793H115.492V102.646H116.481V106.737C116.481 107.879 117.401 108.424 118.254 108.424C118.629 108.424 118.867 108.356 119.004 108.305L118.799 107.401C118.714 107.418 118.577 107.453 118.356 107.453C117.913 107.453 117.487 107.316 117.487 106.464V102.646H118.884V101.793ZM123.908 108.339H124.88V107.333H124.999C125.221 107.691 125.647 108.475 126.908 108.475C128.545 108.475 129.687 107.163 129.687 105.083C129.687 103.021 128.545 101.708 126.891 101.708C125.613 101.708 125.221 102.492 124.999 102.833H124.914V99.6116H123.908V108.339ZM124.897 105.066C124.897 103.6 125.545 102.612 126.772 102.612C128.05 102.612 128.681 103.685 128.681 105.066C128.681 106.464 128.033 107.572 126.772 107.572C125.562 107.572 124.897 106.549 124.897 105.066ZM133.969 108.475C135.299 108.475 136.271 107.81 136.577 106.822L135.606 106.549C135.35 107.231 134.758 107.572 133.969 107.572C132.789 107.572 131.975 106.809 131.928 105.407H136.68V104.981C136.68 102.543 135.231 101.708 133.867 101.708C132.094 101.708 130.918 103.106 130.918 105.117C130.918 107.129 132.077 108.475 133.969 108.475ZM131.928 104.538C131.996 103.519 132.717 102.612 133.867 102.612C134.958 102.612 135.657 103.43 135.657 104.538H131.928ZM142.59 99.6116H141.585V108.339H142.59V99.6116ZM147.176 108.475C148.506 108.475 149.478 107.81 149.784 106.822L148.813 106.549C148.557 107.231 147.965 107.572 147.176 107.572C145.996 107.572 145.182 106.809 145.135 105.407H149.887V104.981C149.887 102.543 148.438 101.708 147.074 101.708C145.301 101.708 144.125 103.106 144.125 105.117C144.125 107.129 145.284 108.475 147.176 108.475ZM145.135 104.538C145.203 103.519 145.924 102.612 147.074 102.612C148.165 102.612 148.864 103.43 148.864 104.538H145.135ZM156.053 103.259C155.738 102.33 155.03 101.708 153.735 101.708C152.354 101.708 151.331 102.492 151.331 103.6C151.331 104.504 151.868 105.109 153.07 105.39L154.161 105.646C154.821 105.799 155.132 106.114 155.132 106.566C155.132 107.129 154.536 107.589 153.598 107.589C152.776 107.589 152.26 107.235 152.081 106.532L151.127 106.771C151.361 107.883 152.277 108.475 153.615 108.475C155.137 108.475 156.172 107.644 156.172 106.515C156.172 105.603 155.601 105.028 154.434 104.742L153.462 104.504C152.686 104.312 152.337 104.052 152.337 103.549C152.337 102.987 152.934 102.578 153.735 102.578C154.613 102.578 154.975 103.063 155.15 103.515L156.053 103.259ZM162.322 103.259C162.007 102.33 161.3 101.708 160.004 101.708C158.624 101.708 157.601 102.492 157.601 103.6C157.601 104.504 158.138 105.109 159.339 105.39L160.43 105.646C161.091 105.799 161.402 106.114 161.402 106.566C161.402 107.129 160.805 107.589 159.868 107.589C159.045 107.589 158.53 107.235 158.351 106.532L157.396 106.771C157.631 107.883 158.547 108.475 159.885 108.475C161.406 108.475 162.442 107.644 162.442 106.515C162.442 105.603 161.871 105.028 160.703 104.742L159.732 104.504C158.956 104.312 158.607 104.052 158.607 103.549C158.607 102.987 159.203 102.578 160.004 102.578C160.882 102.578 161.244 103.063 161.419 103.515L162.322 103.259ZM170.177 101.793H168.779V100.225H167.774V101.793H166.785V102.646H167.774V106.737C167.774 107.879 168.694 108.424 169.547 108.424C169.922 108.424 170.16 108.356 170.297 108.305L170.092 107.401C170.007 107.418 169.87 107.453 169.649 107.453C169.206 107.453 168.779 107.316 168.779 106.464V102.646H170.177V101.793ZM172.836 104.401C172.836 103.259 173.565 102.612 174.558 102.612C175.504 102.612 176.075 103.208 176.075 104.248V108.339H177.081V104.18C177.081 102.497 176.186 101.708 174.848 101.708C173.816 101.708 173.228 102.139 172.922 102.816H172.836V99.6116H171.831V108.339H172.836V104.401ZM180.847 108.492C181.989 108.492 182.585 107.879 182.79 107.453H182.841V108.339H183.847V104.026C183.847 101.947 182.261 101.708 181.426 101.708C180.438 101.708 179.312 102.049 178.801 103.242L179.756 103.583C179.977 103.106 180.501 102.595 181.46 102.595C182.385 102.595 182.841 103.085 182.841 103.924V103.958C182.841 104.444 182.347 104.401 181.153 104.555C179.939 104.712 178.614 104.981 178.614 106.481C178.614 107.759 179.602 108.492 180.847 108.492ZM181 107.589C180.199 107.589 179.619 107.231 179.619 106.532C179.619 105.765 180.318 105.526 181.102 105.424C181.528 105.373 182.67 105.254 182.841 105.049V105.97C182.841 106.788 182.193 107.589 181 107.589ZM186.688 104.401C186.688 103.259 187.395 102.612 188.358 102.612C189.292 102.612 189.858 103.221 189.858 104.248V108.339H190.864V104.18C190.864 102.509 189.973 101.708 188.648 101.708C187.659 101.708 187.046 102.151 186.739 102.816H186.654V101.793H185.682V108.339H186.688V104.401ZM196.06 108.339H201.565V107.401H197.509V107.333L199.469 105.237C200.969 103.63 201.412 102.88 201.412 101.913C201.412 100.566 200.321 99.4923 198.787 99.4923C197.257 99.4923 196.094 100.532 196.094 102.066H197.099C197.099 101.073 197.743 100.413 198.753 100.413C199.699 100.413 200.423 100.992 200.423 101.913C200.423 102.718 199.95 103.315 198.94 104.418L196.06 107.572V108.339ZM203.342 108.339H204.348V104.248C204.348 103.289 205.047 102.612 205.831 102.612C206.594 102.612 207.126 103.11 207.126 103.856V108.339H208.149V104.078C208.149 103.234 208.678 102.612 209.598 102.612C210.314 102.612 210.928 102.991 210.928 103.958V108.339H211.933V103.958C211.933 102.42 211.107 101.708 209.939 101.708C209.001 101.708 208.315 102.139 207.979 102.816H207.911C207.587 102.117 207.016 101.708 206.155 101.708C205.303 101.708 204.672 102.117 204.399 102.816H204.314V101.793H203.342V108.339ZM213.908 108.339H214.88V107.333H214.999C215.221 107.691 215.647 108.475 216.908 108.475C218.545 108.475 219.687 107.163 219.687 105.083C219.687 103.021 218.545 101.708 216.891 101.708C215.613 101.708 215.221 102.492 214.999 102.833H214.914V99.6116H213.908V108.339ZM214.897 105.066C214.897 103.6 215.545 102.612 216.772 102.612C218.05 102.612 218.681 103.685 218.681 105.066C218.681 106.464 218.033 107.572 216.772 107.572C215.562 107.572 214.897 106.549 214.897 105.066ZM227.072 108.458C227.873 108.458 228.768 108.177 229.335 107.597L229.952 108.339H231.163L229.957 106.869C230.285 106.447 230.651 105.739 230.651 104.521H229.68C229.68 105.117 229.543 105.646 229.317 106.085L227.421 103.771L228.06 103.293C228.776 102.765 229.219 102.185 229.219 101.35C229.219 100.379 228.418 99.5264 227.106 99.5264C225.827 99.5264 224.992 100.328 224.992 101.504C224.992 102.279 225.414 102.876 226.015 103.6C224.996 104.308 224.293 104.964 224.293 106.021C224.293 107.435 225.35 108.458 227.072 108.458ZM228.734 106.869C228.252 107.32 227.643 107.572 227.038 107.572C225.998 107.572 225.316 106.839 225.316 106.021C225.316 105.782 225.538 105.168 226.322 104.589L226.646 104.35L228.734 106.869ZM226.803 103.021C226.377 102.501 226.015 102.006 226.015 101.521C226.015 100.975 226.475 100.396 227.14 100.396C227.771 100.396 228.197 100.907 228.197 101.35C228.197 101.947 227.873 102.271 227.379 102.595L226.803 103.021ZM235.651 108.339H236.657V101.793H235.651V108.339ZM236.162 100.703C236.554 100.703 236.878 100.396 236.878 100.021C236.878 99.6457 236.554 99.3389 236.162 99.3389C235.77 99.3389 235.446 99.6457 235.446 100.021C235.446 100.396 235.77 100.703 236.162 100.703ZM239.504 104.401C239.504 103.259 240.212 102.612 241.175 102.612C242.108 102.612 242.675 103.221 242.675 104.248V108.339H243.68V104.18C243.68 102.509 242.79 101.708 241.464 101.708C240.476 101.708 239.862 102.151 239.555 102.816H239.47V101.793H238.499V108.339H239.504V104.401ZM248.893 110.793H249.899V107.333H249.984C250.206 107.691 250.632 108.475 251.893 108.475C253.529 108.475 254.672 107.163 254.672 105.083C254.672 103.021 253.529 101.708 251.876 101.708C250.598 101.708 250.206 102.492 249.984 102.833H249.865V101.793H248.893V110.793ZM249.882 105.066C249.882 103.6 250.529 102.612 251.757 102.612C253.035 102.612 253.666 103.685 253.666 105.066C253.666 106.464 253.018 107.572 251.757 107.572C250.547 107.572 249.882 106.549 249.882 105.066ZM257.211 104.401C257.211 103.259 257.919 102.612 258.882 102.612C259.815 102.612 260.382 103.221 260.382 104.248V108.339H261.387V104.18C261.387 102.509 260.497 101.708 259.172 101.708C258.183 101.708 257.569 102.151 257.262 102.816H257.177V101.793H256.206V108.339H257.211V104.401ZM265.867 110.93C267.435 110.93 268.697 110.214 268.697 108.526V101.793H267.725V102.833H267.623C267.401 102.492 266.992 101.708 265.714 101.708C264.06 101.708 262.918 103.021 262.918 105.032C262.918 107.078 264.112 108.237 265.697 108.237C266.975 108.237 267.384 107.487 267.606 107.129H267.691V108.458C267.691 109.549 266.924 110.043 265.867 110.043C264.678 110.043 264.261 109.417 263.992 109.055L263.191 109.617C263.6 110.303 264.406 110.93 265.867 110.93ZM265.833 107.333C264.572 107.333 263.924 106.379 263.924 105.015C263.924 103.685 264.555 102.612 265.833 102.612C267.06 102.612 267.708 103.6 267.708 105.015C267.708 106.464 267.043 107.333 265.833 107.333ZM276.827 101.793H275.362V101.129C275.362 100.481 275.634 100.14 276.299 100.14C276.589 100.14 276.759 100.208 276.862 100.242L277.151 99.373C276.998 99.3048 276.691 99.2025 276.197 99.2025C275.259 99.2025 274.356 99.765 274.356 100.89V101.793H273.299V102.646H274.356V108.339H275.362V102.646H276.827V101.793ZM280.626 108.475C282.399 108.475 283.592 107.129 283.592 105.1C283.592 103.055 282.399 101.708 280.626 101.708C278.854 101.708 277.661 103.055 277.661 105.1C277.661 107.129 278.854 108.475 280.626 108.475ZM280.626 107.572C279.28 107.572 278.666 106.413 278.666 105.1C278.666 103.788 279.28 102.612 280.626 102.612C281.973 102.612 282.587 103.788 282.587 105.1C282.587 106.413 281.973 107.572 280.626 107.572ZM285.127 108.339H286.133V104.197C286.133 103.31 286.832 102.663 287.787 102.663C288.055 102.663 288.332 102.714 288.4 102.731V101.708C288.285 101.7 288.021 101.691 287.872 101.691C287.088 101.691 286.406 102.134 286.167 102.782H286.099V101.793H285.127V108.339ZM289.592 108.339H290.598V104.248C290.598 103.289 291.297 102.612 292.081 102.612C292.844 102.612 293.376 103.11 293.376 103.856V108.339H294.399V104.078C294.399 103.234 294.928 102.612 295.848 102.612C296.564 102.612 297.178 102.991 297.178 103.958V108.339H298.183V103.958C298.183 102.42 297.357 101.708 296.189 101.708C295.251 101.708 294.565 102.139 294.229 102.816H294.161C293.837 102.117 293.266 101.708 292.405 101.708C291.553 101.708 290.922 102.117 290.649 102.816H290.564V101.793H289.592V108.339ZM301.948 108.492C303.09 108.492 303.687 107.879 303.891 107.453H303.942V108.339H304.948V104.026C304.948 101.947 303.363 101.708 302.528 101.708C301.539 101.708 300.414 102.049 299.903 103.242L300.857 103.583C301.079 103.106 301.603 102.595 302.562 102.595C303.487 102.595 303.942 103.085 303.942 103.924V103.958C303.942 104.444 303.448 104.401 302.255 104.555C301.04 104.712 299.715 104.981 299.715 106.481C299.715 107.759 300.704 108.492 301.948 108.492ZM302.102 107.589C301.3 107.589 300.721 107.231 300.721 106.532C300.721 105.765 301.42 105.526 302.204 105.424C302.63 105.373 303.772 105.254 303.942 105.049V105.97C303.942 106.788 303.295 107.589 302.102 107.589ZM309.63 101.793H308.233V100.225H307.227V101.793H306.238V102.646H307.227V106.737C307.227 107.879 308.147 108.424 309 108.424C309.375 108.424 309.613 108.356 309.75 108.305L309.545 107.401C309.46 107.418 309.324 107.453 309.102 107.453C308.659 107.453 308.233 107.316 308.233 106.464V102.646H309.63V101.793Z" fill="#23262F"/>
<path d="M24.7109 127.339C23.3468 127.339 22.0113 127.22 20.7138 126.993L20.3687 128.963C21.7796 129.21 23.2306 129.339 24.7109 129.339V127.339ZM16.8423 125.958C14.298 125.032 11.9626 123.669 9.92701 121.959L8.64066 123.49C10.8521 125.348 13.3906 126.83 16.1581 127.837L16.8423 125.958ZM7.09103 119.123C5.38123 117.087 4.01814 114.752 3.09186 112.208L1.21252 112.892C2.22004 115.659 3.70207 118.198 5.55959 120.409L7.09103 119.123ZM2.05687 108.336C1.82958 107.039 1.71094 105.703 1.71094 104.339H-0.289062C-0.289062 105.819 -0.160297 107.27 0.0868739 108.681L2.05687 108.336ZM1.71094 104.339V100.529H-0.289062V104.339H1.71094ZM1.71094 96.7198V89.1008H-0.289062V96.7198H1.71094ZM1.71094 85.2912V77.6722H-0.289062V85.2912H1.71094ZM1.71094 73.8627V66.2436H-0.289062V73.8627H1.71094ZM1.71094 62.4341V54.8151H-0.289062V62.4341H1.71094ZM1.71094 51.0055V43.3865H-0.289062V51.0055H1.71094ZM1.71094 39.577V31.9579H-0.289062V39.577H1.71094ZM1.71094 28.1484V24.3389H-0.289062V28.1484H1.71094ZM1.71094 24.3389C1.71094 22.9748 1.82958 21.6392 2.05688 20.3417L0.0868746 19.9966C-0.160297 21.4075 -0.289062 22.8586 -0.289062 24.3389H1.71094ZM3.09186 16.4702C4.01814 13.9259 5.38123 11.5905 7.09103 9.55494L5.5596 8.26859C3.70207 10.48 2.22004 13.0186 1.21252 15.786L3.09186 16.4702ZM9.92702 6.71896C11.9626 5.00916 14.298 3.64607 16.8423 2.71978L16.1581 0.840453C13.3906 1.84797 10.8521 3.33 8.64066 5.18752L9.92702 6.71896ZM20.7138 1.6848C22.0113 1.45751 23.3468 1.33887 24.7109 1.33887V-0.661133C23.2307 -0.661133 21.7796 -0.532367 20.3687 -0.285196L20.7138 1.6848ZM24.7109 1.33887H28.7569V-0.661133H24.7109V1.33887ZM32.8029 1.33887H40.8948V-0.661133H32.8029V1.33887ZM44.9408 1.33887H53.0328V-0.661133H44.9408V1.33887ZM57.0788 1.33887H65.1707V-0.661133H57.0788V1.33887ZM69.2167 1.33887H77.3086V-0.661133H69.2167V1.33887ZM81.3546 1.33887H89.4466V-0.661133H81.3546V1.33887ZM93.4925 1.33887H101.585V-0.661133H93.4925V1.33887ZM105.63 1.33887H113.722V-0.661133H105.63V1.33887ZM117.768 1.33887H125.86V-0.661133H117.768V1.33887ZM129.906 1.33887H137.998V-0.661133H129.906V1.33887ZM142.044 1.33887H150.136V-0.661133H142.044V1.33887ZM154.182 1.33887H162.274V-0.661133H154.182V1.33887ZM166.32 1.33887H174.412V-0.661133H166.32V1.33887ZM178.458 1.33887H186.55V-0.661133H178.458V1.33887ZM190.596 1.33887H198.688V-0.661133H190.596V1.33887ZM202.734 1.33887H210.826V-0.661133H202.734V1.33887ZM214.872 1.33887H222.964V-0.661133H214.872V1.33887ZM227.01 1.33887H235.102V-0.661133H227.01V1.33887ZM239.148 1.33887H247.24V-0.661133H239.148V1.33887ZM251.286 1.33887H259.378V-0.661133H251.286V1.33887ZM263.424 1.33887H271.515V-0.661133H263.424V1.33887ZM275.561 1.33887H283.653V-0.661133H275.561V1.33887ZM287.699 1.33887H295.791V-0.661133H287.699V1.33887ZM299.837 1.33887H307.929V-0.661133H299.837V1.33887ZM311.975 1.33887H320.067V-0.661133H311.975V1.33887ZM324.113 1.33887H332.205V-0.661133H324.113V1.33887ZM336.251 1.33887H344.343V-0.661133H336.251V1.33887ZM348.389 1.33887H356.481V-0.661133H348.389V1.33887ZM360.527 1.33887H368.619V-0.661133H360.527V1.33887ZM372.665 1.33887H376.711V-0.661133H372.665V1.33887ZM376.711 1.33887C378.075 1.33887 379.411 1.45751 380.708 1.68481L381.053 -0.285196C379.642 -0.532367 378.191 -0.661133 376.711 -0.661133V1.33887ZM384.58 2.71978C387.124 3.64607 389.459 5.00916 391.495 6.71896L392.781 5.18753C390.57 3.33 388.031 1.84797 385.264 0.840454L384.58 2.71978ZM394.331 9.55494C396.041 11.5905 397.404 13.9259 398.33 16.4702L400.209 15.786C399.202 13.0186 397.72 10.48 395.862 8.26859L394.331 9.55494ZM399.365 20.3417C399.592 21.6392 399.711 22.9748 399.711 24.3389H401.711C401.711 22.8586 401.582 21.4075 401.335 19.9966L399.365 20.3417ZM399.711 24.3389V28.1484H401.711V24.3389H399.711ZM399.711 31.9579V39.577H401.711V31.9579H399.711ZM399.711 43.3865V51.0055H401.711V43.3865H399.711ZM399.711 54.8151V62.4341H401.711V54.8151H399.711ZM399.711 66.2436V73.8627H401.711V66.2436H399.711ZM399.711 77.6722V85.2913H401.711V77.6722H399.711ZM399.711 89.1008V96.7198H401.711V89.1008H399.711ZM399.711 100.529V104.339H401.711V100.529H399.711ZM399.711 104.339C399.711 105.703 399.592 107.039 399.365 108.336L401.335 108.681C401.582 107.27 401.711 105.819 401.711 104.339H399.711ZM398.33 112.208C397.404 114.752 396.041 117.087 394.331 119.123L395.862 120.409C397.72 118.198 399.202 115.659 400.209 112.892L398.33 112.208ZM391.495 121.959C389.459 123.669 387.124 125.032 384.58 125.958L385.264 127.837C388.031 126.83 390.57 125.348 392.781 123.49L391.495 121.959ZM380.708 126.993C379.411 127.22 378.075 127.339 376.711 127.339V129.339C378.191 129.339 379.642 129.21 381.053 128.963L380.708 126.993ZM376.711 127.339H372.665V129.339H376.711V127.339ZM368.619 127.339H360.527V129.339H368.619V127.339ZM356.481 127.339H348.389V129.339H356.481V127.339ZM344.343 127.339H336.251V129.339H344.343V127.339ZM332.205 127.339H324.113V129.339H332.205V127.339ZM320.067 127.339H311.975V129.339H320.067V127.339ZM307.929 127.339H299.837V129.339H307.929V127.339ZM295.791 127.339H287.699V129.339H295.791V127.339ZM283.653 127.339H275.561V129.339H283.653V127.339ZM271.516 127.339H263.424V129.339H271.516V127.339ZM259.378 127.339H251.286V129.339H259.378V127.339ZM247.24 127.339H239.148V129.339H247.24V127.339ZM235.102 127.339H227.01V129.339H235.102V127.339ZM222.964 127.339H214.872V129.339H222.964V127.339ZM210.826 127.339H202.734V129.339H210.826V127.339ZM198.688 127.339H190.596V129.339H198.688V127.339ZM186.55 127.339H178.458V129.339H186.55V127.339ZM174.412 127.339H166.32V129.339H174.412V127.339ZM162.274 127.339H154.182V129.339H162.274V127.339ZM150.136 127.339H142.044V129.339H150.136V127.339ZM137.998 127.339H129.906V129.339H137.998V127.339ZM125.86 127.339H117.768V129.339H125.86V127.339ZM113.722 127.339H105.631V129.339H113.722V127.339ZM101.585 127.339H93.4926V129.339H101.585V127.339ZM89.4466 127.339H81.3546V129.339H89.4466V127.339ZM77.3087 127.339H69.2167V129.339H77.3087V127.339ZM65.1707 127.339H57.0788V129.339H65.1707V127.339ZM53.0328 127.339H44.9408V129.339H53.0328V127.339ZM40.8948 127.339H32.8029V129.339H40.8948V127.339ZM28.7569 127.339H24.7109V129.339H28.7569V127.339ZM24.7109 126.339C23.4049 126.339 22.1271 126.225 20.8863 126.008L20.1961 129.948C21.6638 130.205 23.1726 130.339 24.7109 130.339V126.339ZM17.1844 125.018C14.7516 124.133 12.5178 122.829 10.5702 121.193L7.99748 124.256C10.2968 126.187 12.937 127.729 15.816 128.777L17.1844 125.018ZM7.85675 118.48C6.22081 116.532 4.91718 114.298 4.03152 111.865L0.272858 113.234C1.321 116.113 2.86249 118.753 4.79388 121.052L7.85675 118.48ZM3.04188 108.163C2.82452 106.923 2.71094 105.645 2.71094 104.339H-1.28906C-1.28906 105.877 -1.15523 107.386 -0.898126 108.854L3.04188 108.163ZM2.71094 104.339V100.529H-1.28906V104.339H2.71094ZM2.71094 96.7198V89.1008H-1.28906V96.7198H2.71094ZM2.71094 85.2912V77.6722H-1.28906V85.2912H2.71094ZM2.71094 73.8627V66.2436H-1.28906V73.8627H2.71094ZM2.71094 62.4341V54.8151H-1.28906V62.4341H2.71094ZM2.71094 51.0055V43.3865H-1.28906V51.0055H2.71094ZM2.71094 39.577V31.9579H-1.28906V39.577H2.71094ZM2.71094 28.1484V24.3389H-1.28906V28.1484H2.71094ZM2.71094 24.3389C2.71094 23.0329 2.82452 21.755 3.04188 20.5142L-0.898126 19.824C-1.15523 21.2917 -1.28906 22.8005 -1.28906 24.3389H2.71094ZM4.03152 16.8123C4.91718 14.3796 6.22081 12.1457 7.85675 10.1981L4.79388 7.62541C2.86249 9.92477 1.321 12.5649 0.272858 15.4439L4.03152 16.8123ZM10.5702 7.48468C12.5178 5.84874 14.7516 4.54511 17.1844 3.65945L15.816 -0.0992123C12.937 0.948927 10.2968 2.49042 7.99749 4.4218L10.5702 7.48468ZM20.8863 2.66981C22.1271 2.45245 23.4049 2.33887 24.7109 2.33887V-1.66113C23.1726 -1.66113 21.6638 -1.5273 20.1961 -1.2702L20.8863 2.66981ZM24.7109 2.33887H28.7569V-1.66113H24.7109V2.33887ZM32.8029 2.33887H40.8948V-1.66113H32.8029V2.33887ZM44.9408 2.33887H53.0328V-1.66113H44.9408V2.33887ZM57.0788 2.33887H65.1707V-1.66113H57.0788V2.33887ZM69.2167 2.33887H77.3086V-1.66113H69.2167V2.33887ZM81.3546 2.33887H89.4466V-1.66113H81.3546V2.33887ZM93.4925 2.33887H101.585V-1.66113H93.4925V2.33887ZM105.63 2.33887H113.722V-1.66113H105.63V2.33887ZM117.768 2.33887H125.86V-1.66113H117.768V2.33887ZM129.906 2.33887H137.998V-1.66113H129.906V2.33887ZM142.044 2.33887H150.136V-1.66113H142.044V2.33887ZM154.182 2.33887H162.274V-1.66113H154.182V2.33887ZM166.32 2.33887H174.412V-1.66113H166.32V2.33887ZM178.458 2.33887H186.55V-1.66113H178.458V2.33887ZM190.596 2.33887H198.688V-1.66113H190.596V2.33887ZM202.734 2.33887H210.826V-1.66113H202.734V2.33887ZM214.872 2.33887H222.964V-1.66113H214.872V2.33887ZM227.01 2.33887H235.102V-1.66113H227.01V2.33887ZM239.148 2.33887H247.24V-1.66113H239.148V2.33887ZM251.286 2.33887H259.378V-1.66113H251.286V2.33887ZM263.424 2.33887H271.515V-1.66113H263.424V2.33887ZM275.561 2.33887H283.653V-1.66113H275.561V2.33887ZM287.699 2.33887H295.791V-1.66113H287.699V2.33887ZM299.837 2.33887H307.929V-1.66113H299.837V2.33887ZM311.975 2.33887H320.067V-1.66113H311.975V2.33887ZM324.113 2.33887H332.205V-1.66113H324.113V2.33887ZM336.251 2.33887H344.343V-1.66113H336.251V2.33887ZM348.389 2.33887H356.481V-1.66113H348.389V2.33887ZM360.527 2.33887H368.619V-1.66113H360.527V2.33887ZM372.665 2.33887H376.711V-1.66113H372.665V2.33887ZM376.711 2.33887C378.017 2.33887 379.295 2.45245 380.536 2.66981L381.226 -1.2702C379.758 -1.5273 378.249 -1.66113 376.711 -1.66113V2.33887ZM384.237 3.65945C386.67 4.54511 388.904 5.84874 390.852 7.48468L393.424 4.42181C391.125 2.49042 388.485 0.948928 385.606 -0.0992121L384.237 3.65945ZM393.565 10.1981C395.201 12.1458 396.505 14.3796 397.39 16.8123L401.149 15.4439C400.101 12.5649 398.559 9.92478 396.628 7.62541L393.565 10.1981ZM398.38 20.5142C398.597 21.755 398.711 23.0329 398.711 24.3389H402.711C402.711 22.8005 402.577 21.2917 402.32 19.824L398.38 20.5142ZM398.711 24.3389V28.1484H402.711V24.3389H398.711ZM398.711 31.9579V39.577H402.711V31.9579H398.711ZM398.711 43.3865V51.0055H402.711V43.3865H398.711ZM398.711 54.8151V62.4341H402.711V54.8151H398.711ZM398.711 66.2436V73.8627H402.711V66.2436H398.711ZM398.711 77.6722V85.2913H402.711V77.6722H398.711ZM398.711 89.1008V96.7198H402.711V89.1008H398.711ZM398.711 100.529V104.339H402.711V100.529H398.711ZM398.711 104.339C398.711 105.645 398.597 106.923 398.38 108.163L402.32 108.854C402.577 107.386 402.711 105.877 402.711 104.339H398.711ZM397.39 111.865C396.505 114.298 395.201 116.532 393.565 118.48L396.628 121.052C398.559 118.753 400.101 116.113 401.149 113.234L397.39 111.865ZM390.852 121.193C388.904 122.829 386.67 124.133 384.237 125.018L385.606 128.777C388.485 127.729 391.125 126.187 393.424 124.256L390.852 121.193ZM380.536 126.008C379.295 126.225 378.017 126.339 376.711 126.339V130.339C378.249 130.339 379.758 130.205 381.226 129.948L380.536 126.008ZM376.711 126.339H372.665V130.339H376.711V126.339ZM368.619 126.339H360.527V130.339H368.619V126.339ZM356.481 126.339H348.389V130.339H356.481V126.339ZM344.343 126.339H336.251V130.339H344.343V126.339ZM332.205 126.339H324.113V130.339H332.205V126.339ZM320.067 126.339H311.975V130.339H320.067V126.339ZM307.929 126.339H299.837V130.339H307.929V126.339ZM295.791 126.339H287.699V130.339H295.791V126.339ZM283.653 126.339H275.561V130.339H283.653V126.339ZM271.516 126.339H263.424V130.339H271.516V126.339ZM259.378 126.339H251.286V130.339H259.378V126.339ZM247.24 126.339H239.148V130.339H247.24V126.339ZM235.102 126.339H227.01V130.339H235.102V126.339ZM222.964 126.339H214.872V130.339H222.964V126.339ZM210.826 126.339H202.734V130.339H210.826V126.339ZM198.688 126.339H190.596V130.339H198.688V126.339ZM186.55 126.339H178.458V130.339H186.55V126.339ZM174.412 126.339H166.32V130.339H174.412V126.339ZM162.274 126.339H154.182V130.339H162.274V126.339ZM150.136 126.339H142.044V130.339H150.136V126.339ZM137.998 126.339H129.906V130.339H137.998V126.339ZM125.86 126.339H117.768V130.339H125.86V126.339ZM113.722 126.339H105.631V130.339H113.722V126.339ZM101.585 126.339H93.4926V130.339H101.585V126.339ZM89.4466 126.339H81.3546V130.339H89.4466V126.339ZM77.3087 126.339H69.2167V130.339H77.3087V126.339ZM65.1707 126.339H57.0788V130.339H65.1707V126.339ZM53.0328 126.339H44.9408V130.339H53.0328V126.339ZM40.8948 126.339H32.8029V130.339H40.8948V126.339ZM28.7569 126.339H24.7109V130.339H28.7569V126.339Z" fill="#E2E6EA"/>
</svg>
