<svg width="114" height="39" viewBox="0 0 114 39" fill="none" xmlns="http://www.w3.org/2000/svg">
<rect x="1.50488" y="1.50592" width="35.732" height="35.732" rx="3.17618" fill="#326BFF"/>
<path d="M11.0239 25.3115C14.3605 25.3115 15.9676 23.6694 15.9676 20.0009V13.4326H13.4696V20.0358C13.4696 22.0622 12.7533 22.9007 11.0414 22.9007C9.36436 22.9007 8.59572 22.0622 8.59572 20.0358V13.4326H6.09766V20.0009C6.09766 23.6694 7.75721 25.3115 11.0239 25.3115Z" fill="white"/>
<path d="M22.7582 25.1368L24.278 19.0052L24.9068 15.2144L25.5357 19.0052L27.0381 25.1368H30.4096L33.2395 13.4326H30.3746L29.1169 19.8262L28.6627 23.3724L28.0687 20.1057L26.5664 13.4326H23.2648L21.745 20.1057L21.1335 23.3724L20.6968 19.8262L19.4565 13.4326H16.5741L19.3866 25.1368H22.7582Z" fill="white"/>
<path d="M46.3687 24.5059L47.8186 19.5622L48.3951 17.3087L48.9367 19.5622L50.3866 24.5059H52.378L54.5617 16.0509H52.8672L51.7841 21.2567L51.3823 23.4054L50.8408 21.2567L49.321 16.0509H47.4518L45.9145 21.2567L45.3904 23.4054L44.9887 21.2567L43.8881 16.0509H42.1936L44.3947 24.5059H46.3687ZM58.8775 24.6806C61.2183 24.6806 62.8779 22.9512 62.8779 20.2784C62.8779 17.6057 61.2183 15.8762 58.8775 15.8762C56.5366 15.8762 54.8945 17.6057 54.8945 20.2784C54.8945 22.9512 56.5366 24.6806 58.8775 24.6806ZM58.8775 23.4054C57.445 23.4054 56.4493 22.4096 56.4493 20.2784C56.4493 18.1297 57.445 17.1515 58.8775 17.1515C60.3274 17.1515 61.3406 18.1297 61.3406 20.2784C61.3406 22.4096 60.3274 23.4054 58.8775 23.4054ZM66.3057 24.5059V19.7194C66.3057 18.2695 67.284 16.9943 68.3671 16.9943C68.9785 16.9943 69.2405 17.4135 69.2405 17.9026C69.2405 18.3743 69.0134 18.8984 68.7339 19.1429H70.3935C70.5332 18.9333 70.7254 18.4092 70.7254 17.693C70.7254 16.5051 69.8519 15.8588 68.9435 15.8588C67.5111 15.8588 66.6376 16.9943 66.3057 18.3044V16.0509H64.7859V24.5059H66.3057ZM73.6755 24.5059V21.5537L75.0206 20.2784L77.7632 24.5059H79.5974L76.0687 19.3351L79.545 16.0509H77.6409L74.8634 18.7062L73.6231 19.929L73.6755 18.7412V12.8017H72.1557V24.5059H73.6755ZM82.9714 24.5059V17.2388H84.6659V16.0509H82.9714V15.6491C82.9714 14.2342 83.5304 13.8324 84.3864 13.8324C85.3297 13.8324 86.2381 14.339 86.2381 15.8413V24.5059H87.7405V12.8017H86.2381V14.5661C85.9936 13.3258 85.1026 12.627 83.8274 12.627C82.4473 12.627 81.4516 13.4481 81.4516 15.2648V16.0509H80.0716V17.2388H81.4516V24.5059H82.9714ZM93.4401 24.6806C95.781 24.6806 97.4405 22.9512 97.4405 20.2784C97.4405 17.6057 95.781 15.8762 93.4401 15.8762C91.0993 15.8762 89.4572 17.6057 89.4572 20.2784C89.4572 22.9512 91.0993 24.6806 93.4401 24.6806ZM93.4401 23.4054C92.0077 23.4054 91.0119 22.4096 91.0119 20.2784C91.0119 18.1297 92.0077 17.1515 93.4401 17.1515C94.89 17.1515 95.9032 18.1297 95.9032 20.2784C95.9032 22.4096 94.89 23.4054 93.4401 23.4054ZM102.171 24.5059L103.62 19.5622L104.197 17.3087L104.738 19.5622L106.188 24.5059H108.18L110.363 16.0509H108.669L107.586 21.2567L107.184 23.4054L106.643 21.2567L105.123 16.0509H103.254L101.716 21.2567L101.192 23.4054L100.79 21.2567L99.6899 16.0509H97.9954L100.197 24.5059H102.171Z" fill="#326BFF"/>
</svg>
