<svg width="242" height="212" viewBox="0 0 242 212" fill="none" xmlns="http://www.w3.org/2000/svg">
<path d="M113.924 167.129C159.713 167.129 196.835 130.007 196.835 84.0547C196.835 38.1022 159.713 0.980469 113.924 0.980469C68.1354 0.980469 31.0137 38.1022 31.0137 84.0547C31.0137 130.007 68.1354 167.129 113.924 167.129Z" fill="#EAEEF9"/>
<path d="M206.321 58.0532C210.024 58.0532 213.025 55.0513 213.025 51.3484C213.025 47.6454 210.024 44.6436 206.321 44.6436C202.618 44.6436 199.616 47.6454 199.616 51.3484C199.616 55.0513 202.618 58.0532 206.321 58.0532Z" fill="#EAEEF9"/>
<path d="M216.132 31.7252C218.66 31.7252 220.711 29.6751 220.711 27.1463C220.711 24.6174 218.66 22.5674 216.132 22.5674C213.603 22.5674 211.553 24.6174 211.553 27.1463C211.553 29.6751 213.603 31.7252 216.132 31.7252Z" fill="#EAEEF9"/>
<path d="M25.2898 62.7955C27.8187 62.7955 29.8687 60.7454 29.8687 58.2166C29.8687 55.6877 27.8187 53.6377 25.2898 53.6377C22.761 53.6377 20.7109 55.6877 20.7109 58.2166C20.7109 60.7454 22.761 62.7955 25.2898 62.7955Z" fill="#EAEEF9"/>
<path d="M142.379 36.0479C170.609 36.0479 193.381 56.5784 193.381 81.8178C193.381 96.321 185.853 109.317 173.997 117.793V136.817C173.997 139.454 170.985 140.772 169.103 139.266L152.918 126.646C149.531 127.211 146.143 127.588 142.567 127.588C114.337 127.588 91.5649 107.057 91.5649 81.8178C91.5649 56.5784 114.337 36.0479 142.379 36.0479Z" fill="#CBD4E0"/>
<g filter="url(#filter0_d_65_12242)">
<path d="M92.5068 33.7861C61.0774 33.7861 35.6704 56.5769 35.6704 84.6416C35.6704 100.84 44.1394 115.343 57.3134 124.573V145.668C57.3134 148.493 60.5128 150.189 62.7712 148.305L80.8384 134.367C84.6024 135.12 88.3664 135.497 92.3186 135.497C123.748 135.497 149.155 112.706 149.155 84.6416C149.155 56.5769 123.748 33.7861 92.5068 33.7861Z" fill="url(#paint0_linear_65_12242)"/>
</g>
<path d="M73.9694 86.7145C77.3994 86.7145 80.18 83.9317 80.18 80.4989C80.18 77.0661 77.3994 74.2832 73.9694 74.2832C70.5394 74.2832 67.7588 77.0661 67.7588 80.4989C67.7588 83.9317 70.5394 86.7145 73.9694 86.7145Z" fill="#989FB0"/>
<path d="M109.163 86.7145C112.593 86.7145 115.373 83.9317 115.373 80.4989C115.373 77.0661 112.593 74.2832 109.163 74.2832C105.733 74.2832 102.952 77.0661 102.952 80.4989C102.952 83.9317 105.733 86.7145 109.163 86.7145Z" fill="#989FB0"/>
<path d="M99.3768 106.492C98.8122 106.492 98.2476 106.304 97.8712 105.738C96.3656 103.667 94.1072 102.536 91.4724 102.536C89.0258 102.536 86.5792 103.667 85.2618 105.738C84.6972 106.68 83.568 106.869 82.627 106.115C81.686 105.55 81.4978 104.42 82.2506 103.478C84.3208 100.465 87.8966 98.5811 91.6606 98.5811C95.4246 98.5811 98.8122 100.465 101.071 103.478C101.635 104.42 101.447 105.55 100.694 106.115C100.13 106.492 99.7532 106.492 99.3768 106.492Z" fill="#989FB0"/>
<path d="M78.507 29.0085C78.2801 29.0085 78.0532 29.0085 77.8263 29.0085C76.6917 28.5543 76.0109 27.4188 76.2378 26.2833L80.0955 13.7924C80.5493 12.6569 81.6839 11.9756 82.8185 12.2027C83.9531 12.6569 84.6339 13.7924 84.407 14.928L80.7762 27.4188C80.5493 28.3272 79.6416 29.0085 78.507 29.0085Z" fill="#B5BCCE"/>
<path d="M68.9768 31.7332C68.0692 31.7332 67.1615 31.0519 66.7076 30.1435L60.8077 12.2021C60.3538 11.0665 61.0346 9.70391 62.1692 9.2497C63.3038 8.79548 64.6653 9.4768 65.1192 10.6123L71.0191 28.5537C71.473 29.6892 70.7922 31.0519 69.6576 31.5061C69.4307 31.7332 69.2038 31.7332 68.9768 31.7332Z" fill="#B5BCCE"/>
<path d="M60.1269 36.0482C59.4461 36.0482 58.9923 35.8211 58.5384 35.3669L51.277 28.3266C50.3693 27.4182 50.3693 26.0556 51.277 25.1471C52.1846 24.2387 53.5462 24.2387 54.4538 25.1471L61.7153 32.1874C62.623 33.0959 62.623 34.4585 61.7153 35.3669C61.2615 35.8211 60.5807 36.0482 60.1269 36.0482Z" fill="#B5BCCE"/>
<path d="M1.08026 192.514H5.19673V204.198H6.78196V192.514H10.8984V191.107H1.08026V192.514ZM14.649 198.292C14.649 196.579 15.742 195.607 17.2314 195.607C18.6504 195.607 19.5069 196.502 19.5069 198.062V204.198H21.0154V197.96C21.0154 195.435 19.6731 194.252 17.666 194.252C16.1191 194.252 15.237 194.898 14.7768 195.914H14.649V191.107H13.1404V204.198H14.649V198.292ZM23.7752 204.198H25.2837V194.38H23.7752V204.198ZM24.5423 192.744C25.1303 192.744 25.6161 192.283 25.6161 191.721C25.6161 191.158 25.1303 190.698 24.5423 190.698C23.9542 190.698 23.4684 191.158 23.4684 191.721C23.4684 192.283 23.9542 192.744 24.5423 192.744ZM35.0012 196.579C34.5282 195.185 33.4672 194.252 31.524 194.252C29.4529 194.252 27.9189 195.428 27.9189 197.09C27.9189 198.445 28.7243 199.353 30.5268 199.775L32.1632 200.158C33.1539 200.389 33.6206 200.862 33.6206 201.539C33.6206 202.383 32.7257 203.073 31.3194 203.073C30.0858 203.073 29.3123 202.543 29.0439 201.488L27.612 201.846C27.9636 203.514 29.3379 204.403 31.345 204.403C33.627 204.403 35.1802 203.156 35.1802 201.462C35.1802 200.095 34.3237 199.232 32.5723 198.803L31.1149 198.445C29.9515 198.158 29.4274 197.768 29.4274 197.014C29.4274 196.17 30.3223 195.556 31.524 195.556C32.8407 195.556 33.3841 196.285 33.6461 196.962L35.0012 196.579ZM49.468 196.579C48.995 195.185 47.9339 194.252 45.9908 194.252C43.9197 194.252 42.3857 195.428 42.3857 197.09C42.3857 198.445 43.1911 199.353 44.9936 199.775L46.63 200.158C47.6207 200.389 48.0874 200.862 48.0874 201.539C48.0874 202.383 47.1925 203.073 45.7862 203.073C44.5526 203.073 43.7791 202.543 43.5107 201.488L42.0788 201.846C42.4304 203.514 43.8047 204.403 45.8118 204.403C48.0938 204.403 49.647 203.156 49.647 201.462C49.647 200.095 48.7905 199.232 47.0391 198.803L45.5817 198.445C44.4183 198.158 43.8942 197.768 43.8942 197.014C43.8942 196.17 44.7891 195.556 45.9908 195.556C47.3075 195.556 47.8509 196.285 48.1129 196.962L49.468 196.579ZM51.9178 207.88H53.4263V202.69H53.5542C53.8865 203.227 54.5257 204.403 56.4178 204.403C58.8723 204.403 60.5854 202.434 60.5854 199.315C60.5854 196.221 58.8723 194.252 56.3922 194.252C54.4746 194.252 53.8865 195.428 53.5542 195.94H53.3752V194.38H51.9178V207.88ZM53.4007 199.289C53.4007 197.09 54.3723 195.607 56.2132 195.607C58.1309 195.607 59.0769 197.218 59.0769 199.289C59.0769 201.386 58.1053 203.048 56.2132 203.048C54.3979 203.048 53.4007 201.514 53.4007 199.289ZM65.7757 204.428C67.4888 204.428 68.3837 203.508 68.6905 202.869H68.7672V204.198H70.2757V197.729C70.2757 194.61 67.8979 194.252 66.6451 194.252C65.1621 194.252 63.4746 194.764 62.7076 196.553L64.1394 197.065C64.4718 196.349 65.258 195.582 66.6962 195.582C68.0833 195.582 68.7672 196.317 68.7672 197.576V197.627C68.7672 198.356 68.0257 198.292 66.236 198.522C64.4142 198.759 62.4263 199.161 62.4263 201.411C62.4263 203.329 63.9093 204.428 65.7757 204.428ZM66.0059 203.073C64.8042 203.073 63.9348 202.536 63.9348 201.488C63.9348 200.337 64.9831 199.979 66.1593 199.826C66.7985 199.749 68.5115 199.57 68.7672 199.264V200.644C68.7672 201.872 67.7956 203.073 66.0059 203.073ZM77.0178 204.403C79.1911 204.403 80.6229 203.073 80.8786 201.335H79.37C79.0888 202.408 78.1939 203.048 77.0178 203.048C75.228 203.048 74.0774 201.565 74.0774 199.289C74.0774 197.065 75.2536 195.607 77.0178 195.607C78.3473 195.607 79.1399 196.426 79.37 197.32H80.8786C80.6229 195.479 79.0632 194.252 76.9922 194.252C74.3331 194.252 72.5689 196.349 72.5689 199.34C72.5689 202.281 74.2564 204.403 77.0178 204.403ZM87.2003 204.403C89.1946 204.403 90.652 203.406 91.1122 201.923L89.6548 201.514C89.2713 202.536 88.3828 203.048 87.2003 203.048C85.4297 203.048 84.2088 201.903 84.1385 199.801H91.2656V199.161C91.2656 195.505 89.0923 194.252 87.0469 194.252C84.3878 194.252 82.6236 196.349 82.6236 199.366C82.6236 202.383 84.3622 204.403 87.2003 204.403ZM84.1385 198.497C84.2408 196.969 85.321 195.607 87.0469 195.607C88.6832 195.607 89.7315 196.835 89.7315 198.497H84.1385ZM98.6229 204.198H100.131V194.38H98.6229V204.198ZM99.3899 192.744C99.978 192.744 100.464 192.283 100.464 191.721C100.464 191.158 99.978 190.698 99.3899 190.698C98.8018 190.698 98.3161 191.158 98.3161 191.721C98.3161 192.283 98.8018 192.744 99.3899 192.744ZM109.849 196.579C109.376 195.185 108.315 194.252 106.372 194.252C104.301 194.252 102.767 195.428 102.767 197.09C102.767 198.445 103.572 199.353 105.374 199.775L107.011 200.158C108.002 200.389 108.468 200.862 108.468 201.539C108.468 202.383 107.573 203.073 106.167 203.073C104.933 203.073 104.16 202.543 103.892 201.488L102.46 201.846C102.811 203.514 104.186 204.403 106.193 204.403C108.475 204.403 110.028 203.156 110.028 201.462C110.028 200.095 109.171 199.232 107.42 198.803L105.963 198.445C104.799 198.158 104.275 197.768 104.275 197.014C104.275 196.17 105.17 195.556 106.372 195.556C107.688 195.556 108.232 196.285 108.494 196.962L109.849 196.579ZM118.87 191.107H117.361V204.198H118.87V191.107ZM125.621 204.403C128.28 204.403 130.07 202.383 130.07 199.34C130.07 196.272 128.28 194.252 125.621 194.252C122.962 194.252 121.172 196.272 121.172 199.34C121.172 202.383 122.962 204.403 125.621 204.403ZM125.621 203.048C123.601 203.048 122.681 201.309 122.681 199.34C122.681 197.372 123.601 195.607 125.621 195.607C127.641 195.607 128.562 197.372 128.562 199.34C128.562 201.309 127.641 203.048 125.621 203.048ZM136.362 204.403C139.021 204.403 140.81 202.383 140.81 199.34C140.81 196.272 139.021 194.252 136.362 194.252C133.702 194.252 131.913 196.272 131.913 199.34C131.913 202.383 133.702 204.403 136.362 204.403ZM136.362 203.048C134.342 203.048 133.421 201.309 133.421 199.34C133.421 197.372 134.342 195.607 136.362 195.607C138.381 195.607 139.302 197.372 139.302 199.34C139.302 201.309 138.381 203.048 136.362 203.048ZM143.113 204.198H144.622V200.523L145.676 199.545L149.352 204.198H151.269L146.814 198.573L150.963 194.38H149.096L144.801 198.752H144.622V191.107H143.113V204.198ZM152.904 204.198H154.413V194.38H152.904V204.198ZM153.671 192.744C154.259 192.744 154.745 192.283 154.745 191.721C154.745 191.158 154.259 190.698 153.671 190.698C153.083 190.698 152.597 191.158 152.597 191.721C152.597 192.283 153.083 192.744 153.671 192.744ZM158.684 198.292C158.684 196.579 159.745 195.607 161.19 195.607C162.59 195.607 163.44 196.521 163.44 198.062V204.198H164.948V197.96C164.948 195.454 163.612 194.252 161.624 194.252C160.142 194.252 159.221 194.917 158.761 195.914H158.633V194.38H157.176V204.198H158.684V198.292ZM171.668 208.085C174.02 208.085 175.912 207.011 175.912 204.479V194.38H174.455V195.94H174.301C173.969 195.428 173.355 194.252 171.438 194.252C168.958 194.252 167.245 196.221 167.245 199.238C167.245 202.306 169.034 204.045 171.412 204.045C173.33 204.045 173.944 202.92 174.276 202.383H174.404V204.377C174.404 206.014 173.253 206.755 171.668 206.755C169.885 206.755 169.258 205.815 168.855 205.272L167.654 206.116C168.267 207.145 169.475 208.085 171.668 208.085ZM171.617 202.69C169.725 202.69 168.753 201.258 168.753 199.212C168.753 197.218 169.699 195.607 171.617 195.607C173.458 195.607 174.429 197.09 174.429 199.212C174.429 201.386 173.432 202.69 171.617 202.69ZM187.853 204.403C189.847 204.403 191.304 203.406 191.765 201.923L190.307 201.514C189.924 202.536 189.035 203.048 187.853 203.048C186.082 203.048 184.861 201.903 184.791 199.801H191.918V199.161C191.918 195.505 189.745 194.252 187.699 194.252C185.04 194.252 183.276 196.349 183.276 199.366C183.276 202.383 185.015 204.403 187.853 204.403ZM184.791 198.497C184.893 196.969 185.973 195.607 187.699 195.607C189.336 195.607 190.384 196.835 190.384 198.497H184.791ZM194.213 204.198H195.721V198.062C195.721 196.624 196.77 195.607 197.946 195.607C199.09 195.607 199.889 196.355 199.889 197.474V204.198H201.423V197.806C201.423 196.541 202.216 195.607 203.596 195.607C204.67 195.607 205.591 196.176 205.591 197.627V204.198H207.099V197.627C207.099 195.32 205.859 194.252 204.108 194.252C202.701 194.252 201.672 194.898 201.167 195.914H201.065C200.579 194.866 199.723 194.252 198.431 194.252C197.153 194.252 196.207 194.866 195.798 195.914H195.67V194.38H194.213V204.198ZM209.857 207.88H211.366V202.69H211.494C211.826 203.227 212.465 204.403 214.357 204.403C216.812 204.403 218.525 202.434 218.525 199.315C218.525 196.221 216.812 194.252 214.332 194.252C212.414 194.252 211.826 195.428 211.494 195.94H211.315V194.38H209.857V207.88ZM211.34 199.289C211.34 197.09 212.312 195.607 214.153 195.607C216.07 195.607 217.016 197.218 217.016 199.289C217.016 201.386 216.045 203.048 214.153 203.048C212.337 203.048 211.34 201.514 211.34 199.289ZM225.096 194.38H222.999V192.028H221.491V194.38H220.008V195.658H221.491V201.795C221.491 203.508 222.871 204.326 224.15 204.326C224.712 204.326 225.07 204.224 225.275 204.147L224.968 202.792C224.84 202.818 224.636 202.869 224.303 202.869C223.638 202.869 222.999 202.664 222.999 201.386V195.658H225.096V194.38ZM228.337 207.88C229.698 207.88 230.657 207.158 231.226 205.63L235.406 194.406L233.757 194.38L231.047 202.204H230.945L228.234 194.38H226.598L230.229 204.249L229.947 205.016C229.398 206.512 228.72 206.653 227.621 206.372L227.237 207.701C227.391 207.778 227.825 207.88 228.337 207.88ZM237.886 204.301C238.519 204.301 239.037 203.783 239.037 203.15C239.037 202.517 238.519 201.999 237.886 201.999C237.254 201.999 236.736 202.517 236.736 203.15C236.736 203.783 237.254 204.301 237.886 204.301Z" fill="#23262F" fill-opacity="0.6"/>
<defs>
<filter id="filter0_d_65_12242" x="13.6704" y="22.7861" width="157.484" height="159.314" filterUnits="userSpaceOnUse" color-interpolation-filters="sRGB">
<feFlood flood-opacity="0" result="BackgroundImageFix"/>
<feColorMatrix in="SourceAlpha" type="matrix" values="0 0 0 0 0 0 0 0 0 0 0 0 0 0 0 0 0 0 127 0" result="hardAlpha"/>
<feOffset dy="11"/>
<feGaussianBlur stdDeviation="11"/>
<feColorMatrix type="matrix" values="0 0 0 0 0.397708 0 0 0 0 0.47749 0 0 0 0 0.575 0 0 0 0.27 0"/>
<feBlend mode="normal" in2="BackgroundImageFix" result="effect1_dropShadow_65_12242"/>
<feBlend mode="normal" in="SourceGraphic" in2="effect1_dropShadow_65_12242" result="shape"/>
</filter>
<linearGradient id="paint0_linear_65_12242" x1="92.3757" y1="31.1188" x2="92.3757" y2="150.344" gradientUnits="userSpaceOnUse">
<stop stop-color="#FDFEFF"/>
<stop offset="0.9964" stop-color="#ECF0F5"/>
</linearGradient>
</defs>
</svg>
