<svg width="17" height="17" viewBox="0 0 17 17" fill="none" xmlns="http://www.w3.org/2000/svg">
<path fill-rule="evenodd" clip-rule="evenodd" d="M6.03439 1.67578H11.8144C14.0744 1.67578 15.5877 3.26178 15.5877 5.62178V11.0684C15.5877 13.4224 14.0744 15.0091 11.8144 15.0091H6.03439C3.77439 15.0091 2.25439 13.4224 2.25439 11.0684V5.62178C2.25439 3.26178 3.77439 1.67578 6.03439 1.67578ZM11.3077 10.8824C11.4744 10.8824 11.6411 10.7958 11.7344 10.6358C11.8811 10.4018 11.8011 10.0951 11.5611 9.94911L9.18773 8.53578V5.45511C9.18773 5.18245 8.96773 4.95512 8.68773 4.95512C8.41439 4.95512 8.18773 5.18245 8.18773 5.45511V8.82245C8.18773 8.99578 8.28106 9.16245 8.43439 9.24911L11.0477 10.8091C11.1277 10.8624 11.2211 10.8824 11.3077 10.8824Z" fill="#FF725E" fill-opacity="0.8"/>
</svg>
