<svg width="13" height="9" viewBox="0 0 13 9" fill="none" xmlns="http://www.w3.org/2000/svg">
<path fill-rule="evenodd" clip-rule="evenodd" d="M0.585938 4.60159C0.793044 4.60159 0.960938 4.75464 0.960938 4.94344V7.33641C0.960938 7.71401 1.29672 8.02011 1.71094 8.02011H10.7109C11.1252 8.02011 11.4609 7.71401 11.4609 7.33641V4.94344C11.4609 4.75464 11.6288 4.60159 11.8359 4.60159C12.043 4.60159 12.2109 4.75464 12.2109 4.94344V7.33641C12.2109 8.09161 11.5394 8.70382 10.7109 8.70382H1.71094C0.882511 8.70382 0.210938 8.09161 0.210938 7.33641V4.94344C0.210938 4.75464 0.378831 4.60159 0.585938 4.60159Z" fill="#326BFF"/>
<path fill-rule="evenodd" clip-rule="evenodd" d="M3.96093 2.45034C4.10738 2.58384 4.34482 2.58384 4.49126 2.45034L6.21093 0.882679L7.9306 2.45036C8.07705 2.58386 8.31449 2.58386 8.46093 2.45036C8.60738 2.31686 8.60738 2.10041 8.46093 1.96691L6.4761 0.157499C6.32965 0.0239976 6.09221 0.0239976 5.94577 0.157499L3.96093 1.96689C3.81449 2.10039 3.81449 2.31684 3.96093 2.45034Z" fill="#326BFF"/>
<path fill-rule="evenodd" clip-rule="evenodd" d="M6.21094 0.499352C6.41804 0.499352 6.58594 0.652405 6.58594 0.841205V6.31085C6.58594 6.49965 6.41804 6.6527 6.21094 6.6527C6.00383 6.6527 5.83594 6.49965 5.83594 6.31085V0.841205C5.83594 0.652405 6.00383 0.499352 6.21094 0.499352Z" fill="#326BFF"/>
</svg>
