<svg width="101" height="101" viewBox="0 0 101 101" fill="none" xmlns="http://www.w3.org/2000/svg">
<path fillRule="evenodd" clipRule="evenodd" d="M27.3793 9.39186C31.3997 9.07086 35.2164 7.48952 38.2857 4.87303C41.7524 1.92042 46.1573 0.298828 50.7109 0.298828C55.2646 0.298828 59.6695 1.92042 63.1362 4.87303C66.2055 7.48952 70.0222 9.07086 74.0426 9.39186C78.5829 9.75472 82.8455 11.7229 86.0661 14.9436C89.2868 18.1643 91.2551 22.4269 91.6179 26.9672C91.9367 30.986 93.5179 34.8048 96.1367 37.8736C99.0893 41.3403 100.711 45.7452 100.711 50.2988C100.711 54.8525 99.0893 59.2573 96.1367 62.724C93.5202 65.7934 91.9389 69.61 91.6179 73.6305C91.2551 78.1708 89.2868 82.4333 86.0661 85.654C82.8455 88.8747 78.5829 90.8429 74.0426 91.2058C70.0222 91.5268 66.2055 93.1081 63.1362 95.7246C59.6695 98.6772 55.2646 100.299 50.7109 100.299C46.1573 100.299 41.7524 98.6772 38.2857 95.7246C35.2164 93.1081 31.3997 91.5268 27.3793 91.2058C22.839 90.8429 18.5764 88.8747 15.3557 85.654C12.135 82.4333 10.1668 78.1708 9.80397 73.6305C9.48297 69.61 7.90163 65.7934 5.28514 62.724C2.33253 59.2573 0.710938 54.8525 0.710938 50.2988C0.710937 45.7452 2.33253 41.3403 5.28514 37.8736C7.90163 34.8043 9.48297 30.9876 9.80397 26.9672C10.1668 22.4269 12.135 18.1643 15.3557 14.9436C18.5764 11.7229 22.839 9.75472 27.3793 9.39186ZM73.8801 42.2174C75.0186 41.0386 75.6486 39.4599 75.6343 37.8211C75.6201 36.1823 74.9628 34.6147 73.804 33.4559C72.6451 32.2971 71.0775 31.6398 69.4388 31.6255C67.8 31.6113 66.2212 32.2413 65.0424 33.3798L44.4608 53.9614L36.3794 45.88C35.2007 44.7415 33.6219 44.1115 31.9831 44.1258C30.3443 44.14 28.7767 44.7973 27.6179 45.9561C26.4591 47.115 25.8018 48.6826 25.7875 50.3213C25.7733 51.9601 26.4033 53.5389 27.5418 54.7176L40.042 67.2179C41.2141 68.3896 42.8035 69.0478 44.4608 69.0478C46.1181 69.0478 47.7076 68.3896 48.8797 67.2179L73.8801 42.2174Z" fill="#0ED00A"/>
</svg>
