<svg width="320" height="421" viewBox="0 0 320 421" fill="none" xmlns="http://www.w3.org/2000/svg">
<path d="M0.411133 160.282C0.411133 72.1262 71.8752 0.66217 160.031 0.66217C248.186 0.66217 319.65 72.1262 319.65 160.282V420.662H0.411133V160.282Z" fill="#6765F0" fill-opacity="0.1"/>
<path fill-rule="evenodd" clip-rule="evenodd" d="M166.199 195.33C168.774 197.29 170.306 199.778 168.634 202.58C167.223 204.944 163.986 204.968 160.528 204.098C161.046 205.566 161.653 207.002 162.343 208.399C163.848 211.439 165.109 213.635 166.126 214.985C168.062 217.554 171.639 215.1 176.858 207.623C178.918 204.671 182.29 202.913 185.889 202.913C186.218 202.913 186.546 202.946 186.868 203.012C189.495 203.553 191.187 206.121 190.646 208.748C184.847 236.913 180.245 252.278 176.839 254.845C171.389 258.952 166.324 277.105 166.324 277.105L135.73 272.669L132.331 259.325C131.297 255.263 131.126 251.03 131.828 246.897L139.426 202.217C139.933 199.232 140.874 196.337 142.217 193.623L145.081 187.834C147.328 183.294 152.099 180.566 157.152 180.932L184.483 182.915C186.809 183.083 188.839 184.553 189.726 186.71C191.017 189.851 189.517 193.444 186.376 194.735C183.811 195.789 177.085 195.987 166.199 195.33Z" fill="#8093B8"/>
<path fill-rule="evenodd" clip-rule="evenodd" d="M134.777 220.145L129.42 229.233C129.357 229.34 129.299 229.449 129.245 229.561L110.244 269.309L113.748 290.143L144.123 266.973L142.566 244.192L133.609 250.228L138.447 221.483C138.629 220.401 137.9 219.377 136.818 219.195C136.007 219.058 135.195 219.436 134.777 220.145Z" fill="#9AACD3"/>
<path fill-rule="evenodd" clip-rule="evenodd" d="M113.943 224.893C106.53 222.182 99.116 219.471 91.7023 216.76C73.523 210.113 53.397 219.461 46.7495 237.64C45.4849 241.098 44.7732 244.734 44.6406 248.414L43.2632 286.639H121.927C116.604 245.475 113.943 224.893 113.943 224.893Z" fill="#CBDBFE"/>
<path fill-rule="evenodd" clip-rule="evenodd" d="M110.579 150.724L128.586 149.226L131.688 128.397C131.783 127.759 132.378 127.318 133.016 127.413C133.527 127.49 133.927 127.892 134 128.404L137.344 151.79C137.679 154.132 136.052 156.302 133.71 156.637C133.691 156.64 133.672 156.642 133.653 156.645L112.498 159.379C109.854 159.721 107.419 157.893 107.01 155.259C106.676 153.107 108.149 151.091 110.301 150.757C110.393 150.742 110.486 150.731 110.579 150.724Z" fill="#DFE9FF"/>
<mask id="mask0_37_25898" style="mask-type:alpha" maskUnits="userSpaceOnUse" x="43" y="68" width="82" height="159">
<path d="M64.5621 225.04C63.301 225.526 61.9109 225.734 60.4743 225.597C59.9414 225.546 59.4138 225.45 58.8972 225.31C53.8386 223.94 50.8485 218.728 52.2185 213.67L54.3409 205.833L54.3102 205.85C52.6484 206.766 50.6864 206.97 48.8719 206.415C45.1673 205.282 43.0827 201.36 44.2159 197.655L55.2954 159.121C56.2081 154.634 57.8412 149.105 60.4782 141.096L60.7873 140.021L60.7999 140.121C64.0467 130.313 68.7423 116.884 75.3697 97.3791C75.4928 97.0167 79.1398 86.061 79.2639 85.6965C80.0481 84.6509 81.5313 84.439 82.5768 85.2232C83.0009 85.5412 83.3059 85.9925 83.4429 86.5045L85.8841 95.6267L89.2336 71.0208C89.4367 69.529 90.8106 68.4843 92.3023 68.6874C93.3652 68.8321 94.2444 69.5867 94.5487 70.6153L95.0355 72.2614L122.927 162.908C124.057 166.581 124.632 170.403 124.632 174.246V210.701C124.632 219.519 117.483 226.667 108.665 226.667H71.5908C69.0722 226.667 66.6855 226.083 64.5621 225.04Z" fill="white"/>
</mask>
<g mask="url(#mask0_37_25898)">
<path d="M64.5621 225.04C63.301 225.526 61.9109 225.734 60.4743 225.597C59.9414 225.546 59.4138 225.45 58.8972 225.31C53.8386 223.94 50.8485 218.728 52.2185 213.67L54.3409 205.833L54.3102 205.85C52.6484 206.766 50.6864 206.97 48.8719 206.415C45.1673 205.282 43.0827 201.36 44.2159 197.655L55.2954 159.121C56.2081 154.634 57.8412 149.105 60.4782 141.096L60.7873 140.021L60.7999 140.121C64.0467 130.313 68.7423 116.884 75.3697 97.3791C75.4928 97.0167 79.1398 86.061 79.2639 85.6965C80.0481 84.6509 81.5313 84.439 82.5768 85.2232C83.0009 85.5412 83.3059 85.9925 83.4429 86.5045L85.8841 95.6267L89.2336 71.0208C89.4367 69.529 90.8106 68.4843 92.3023 68.6874C93.3652 68.8321 94.2444 69.5867 94.5487 70.6153L95.0355 72.2614L122.927 162.908C124.057 166.581 124.632 170.403 124.632 174.246V210.701C124.632 219.519 117.483 226.667 108.665 226.667H71.5908C69.0722 226.667 66.6855 226.083 64.5621 225.04Z" fill="#CBDBFE"/>
<path fill-rule="evenodd" clip-rule="evenodd" d="M123.658 167.086C122.879 165.009 121.711 164.165 120.153 164.555C118.596 164.944 117.557 166.372 117.038 168.838C114.637 164.937 110.224 162.744 105.665 163.187C104.333 163.317 102.867 163.513 101.266 163.776C91.816 165.329 87.3277 174.661 86.8578 179.547C86.4583 183.702 86.7865 180.927 86.8787 191.425C86.8986 193.684 85.7771 199.69 83.5142 209.442C82.4447 214.051 85.3141 218.655 89.9233 219.724C90.5404 219.867 91.1716 219.942 91.8051 219.946C100.392 220 105.233 219.969 106.329 219.853C112.124 219.235 113.38 217.905 117.643 217.905C121.239 217.905 122.991 218.814 122.9 220.631C129.126 218.188 132.494 212.022 133.004 202.134C133.515 192.245 130.4 180.563 123.658 167.086Z" fill="#B0BFDC"/>
</g>
<path fill-rule="evenodd" clip-rule="evenodd" d="M105.55 210.896H108.665L107.769 214.978C107.701 215.288 107.452 215.525 107.139 215.579C106.715 215.651 106.313 215.366 106.241 214.942L105.55 210.896ZM120.737 210.896H123.853L122.957 214.978C122.889 215.288 122.64 215.525 122.327 215.579C121.903 215.651 121.5 215.366 121.428 214.942L120.737 210.896Z" fill="white"/>
<mask id="mask1_37_25898" style="mask-type:alpha" maskUnits="userSpaceOnUse" x="171" y="281" width="139" height="134">
<path d="M248.158 321.697C256.843 300.492 262.802 288.722 266.034 286.385C269.995 283.521 274.479 284.195 276.366 286.535C282.639 280.451 288.829 280.3 294.937 286.08C295.464 286.435 295.947 286.793 296.385 287.153C298.486 287.12 300.609 287.523 302.756 288.362C313.54 292.577 311.994 301.38 298.116 314.772L258.393 360.468C253.676 365.894 247.549 369.909 240.691 372.066C238.924 372.622 236.663 374.485 233.909 377.653C231.462 380.468 230.131 382.582 229.917 383.994C228.811 391.297 225.65 398.135 220.804 403.709L215.715 409.564C215.3 410.041 214.854 410.49 214.38 410.909C208.417 416.178 199.311 415.615 194.042 409.651L184.779 399.166L184.706 399.233L184.597 398.96L182.821 396.95L183.521 396.258L171.982 367.275L221.234 321.597L247.65 322.372C247.82 322.146 247.989 321.921 248.158 321.697Z" fill="white"/>
</mask>
<g mask="url(#mask1_37_25898)">
<path d="M248.158 321.697C256.843 300.492 262.802 288.722 266.034 286.385C269.995 283.521 274.479 284.195 276.366 286.535C282.639 280.451 288.829 280.3 294.937 286.08C295.464 286.435 295.947 286.793 296.385 287.153C298.486 287.12 300.609 287.523 302.756 288.362C313.54 292.577 311.994 301.38 298.116 314.772L258.393 360.468C253.676 365.894 247.549 369.909 240.691 372.066C238.924 372.622 236.663 374.485 233.909 377.653C231.462 380.468 230.131 382.582 229.917 383.994C228.811 391.297 225.65 398.135 220.804 403.709L215.715 409.564C215.3 410.041 214.854 410.49 214.38 410.909C208.417 416.178 199.311 415.615 194.042 409.651L184.779 399.166L184.706 399.233L184.597 398.96L182.821 396.95L183.521 396.258L171.982 367.275L221.234 321.597L247.65 322.372C247.82 322.146 247.989 321.921 248.158 321.697Z" fill="#8093B8"/>
</g>
<mask id="mask2_37_25898" style="mask-type:alpha" maskUnits="userSpaceOnUse" x="89" y="189" width="21" height="12">
<path d="M103.603 189.283H95.0354C92.0244 189.283 89.5835 191.724 89.5835 194.735C89.5835 197.746 92.0244 200.187 95.0354 200.187H103.603C106.614 200.187 109.055 197.746 109.055 194.735C109.055 191.724 106.614 189.283 103.603 189.283Z" fill="white"/>
</mask>
<g mask="url(#mask2_37_25898)">
<path d="M103.603 189.283H95.0354C92.0244 189.283 89.5835 191.724 89.5835 194.735C89.5835 197.746 92.0244 200.187 95.0354 200.187H103.603C106.614 200.187 109.055 197.746 109.055 194.735C109.055 191.724 106.614 189.283 103.603 189.283Z" fill="white"/>
<path d="M109.249 193.566C109.249 191.201 107.332 189.283 104.966 189.283C102.6 189.283 100.682 191.201 100.682 193.566V195.903C100.682 198.269 102.6 200.187 104.966 200.187C107.332 200.187 109.249 198.269 109.249 195.903V193.566Z" fill="#2B2B2B"/>
</g>
<mask id="mask3_37_25898" style="mask-type:alpha" maskUnits="userSpaceOnUse" x="119" y="189" width="6" height="12">
<path d="M124.631 189.283V200.187C121.728 200.187 119.374 197.833 119.374 194.929V194.54C119.374 191.637 121.728 189.283 124.631 189.283Z" fill="white"/>
</mask>
<g mask="url(#mask3_37_25898)">
<path d="M124.631 189.283V200.187C121.728 200.187 119.374 197.833 119.374 194.929V194.54C119.374 191.637 121.728 189.283 124.631 189.283Z" fill="white"/>
<path d="M130.862 193.566C130.862 191.201 128.944 189.283 126.579 189.283C124.213 189.283 122.295 191.201 122.295 193.566V195.903C122.295 198.269 124.213 200.187 126.579 200.187C128.944 200.187 130.862 198.269 130.862 195.903V193.566Z" fill="#2B2B2B"/>
</g>
<path fill-rule="evenodd" clip-rule="evenodd" d="M211.104 354.203C217.382 353.238 222.687 349.037 225.067 343.148L225.124 343.007C227.561 336.974 226.874 330.126 223.286 324.697L221.424 321.881C228.252 324.364 235.8 320.842 238.282 314.014C238.34 313.855 238.395 313.694 238.447 313.532L240.7 306.499C229.474 307.583 221.556 306.804 216.946 304.163C212.335 301.521 208.441 298.276 205.263 294.427L201.563 300.658L211.104 354.203Z" fill="#9AACD3"/>
<mask id="mask4_37_25898" style="mask-type:alpha" maskUnits="userSpaceOnUse" x="119" y="354" width="165" height="62">
<path d="M221.405 381.793C243.106 374.436 255.898 371.211 259.782 372.117C264.543 373.228 266.975 377.054 266.448 380.013C275.154 380.756 279.329 385.328 278.974 393.73L277.778 394.211C279.841 396.006 281.376 398.312 282.382 401.129C286.276 412.033 278.617 416.641 259.406 414.953H198.858C191.668 414.953 184.619 412.963 178.491 409.202C176.912 408.233 174.023 407.749 169.825 407.749C166.095 407.749 163.627 408.131 162.421 408.896C156.183 412.853 148.949 414.953 141.563 414.953H133.805C133.173 414.953 132.542 414.912 131.915 414.829C124.026 413.785 118.477 406.543 119.521 398.654L121.357 384.784L121.258 384.773L121.393 384.512L121.745 381.852L122.726 381.927L137.03 354.203L203.816 361.408L220.561 381.852C220.843 381.832 221.124 381.813 221.405 381.793Z" fill="white"/>
</mask>
<g mask="url(#mask4_37_25898)">
<path d="M221.405 381.793C243.106 374.436 255.898 371.211 259.782 372.117C264.543 373.228 266.975 377.054 266.448 380.013C275.154 380.756 279.329 385.328 278.974 393.73L277.778 394.211C279.841 396.006 281.376 398.312 282.382 401.129C286.276 412.033 278.617 416.641 259.406 414.953H198.858C191.668 414.953 184.619 412.963 178.491 409.202C176.912 408.233 174.023 407.749 169.825 407.749C166.095 407.749 163.627 408.131 162.421 408.896C156.183 412.853 148.949 414.953 141.563 414.953H133.805C133.173 414.953 132.542 414.912 131.915 414.829C124.026 413.785 118.477 406.543 119.521 398.654L121.357 384.784L121.258 384.773L121.393 384.512L121.745 381.852L122.726 381.927L137.03 354.203L203.816 361.408L220.561 381.852C220.843 381.832 221.124 381.813 221.405 381.793Z" fill="#B0BFDC"/>
<path d="M279.696 393.477C279.542 393.258 279.244 392.907 278.787 392.469C278.043 391.758 277.11 391.051 275.973 390.395C270.555 387.267 262.693 386.339 252.008 388.883C251.589 388.983 251.331 389.403 251.431 389.821C251.53 390.24 251.95 390.498 252.369 390.398C262.681 387.943 270.135 388.823 275.194 391.744C276.221 392.337 277.054 392.968 277.71 393.595C277.935 393.81 278.121 394.008 278.269 394.183C278.353 394.282 278.403 394.347 278.421 394.372C278.668 394.724 279.154 394.809 279.506 394.562C279.858 394.315 279.943 393.829 279.696 393.477Z" fill="#7181A1"/>
<path d="M282.043 400.155C282.473 400.155 282.822 400.504 282.822 400.934C282.822 401.364 282.473 401.713 282.043 401.713C280.902 401.713 275.528 400.479 271.821 399.265C269.413 398.476 267.559 397.68 266.428 396.89C264.814 395.764 264.474 394.34 266.027 393.281C269.125 391.169 273.567 391.169 279.317 393.19C279.722 393.332 279.936 393.777 279.793 394.183C279.65 394.588 279.206 394.802 278.8 394.659C273.471 392.786 269.518 392.786 266.905 394.568C266.444 394.882 266.479 395.027 267.319 395.613C268.294 396.294 270.032 397.039 272.306 397.784C275.865 398.95 281.112 400.155 282.043 400.155ZM272.438 379.126C272.868 379.126 273.217 379.475 273.217 379.905C273.217 380.335 272.868 380.684 272.438 380.684C271.166 380.684 270.258 380.586 268.39 380.301L268.337 380.293C265.675 379.887 264.377 379.809 262.321 380.08C259.579 380.442 256.254 381.496 251.867 383.492C251.476 383.67 251.014 383.497 250.836 383.106C250.658 382.714 250.831 382.253 251.222 382.074C255.738 380.019 259.206 378.92 262.117 378.536C264.352 378.241 265.776 378.327 268.571 378.753L268.624 378.761C270.419 379.034 271.266 379.126 272.438 379.126Z" fill="#7181A1"/>
</g>
<path fill-rule="evenodd" clip-rule="evenodd" d="M116.587 184.037L122.13 201.392C122.702 203.183 121.714 205.098 119.923 205.67C119.607 205.771 119.278 205.825 118.947 205.831L117.137 205.863C115.631 205.889 114.39 204.69 114.364 203.185C114.363 203.171 114.363 203.158 114.363 203.145L114.305 184.396C114.303 183.751 114.825 183.226 115.47 183.224C115.98 183.222 116.431 183.551 116.587 184.037Z" fill="#7181A1"/>
<mask id="mask5_37_25898" style="mask-type:alpha" maskUnits="userSpaceOnUse" x="30" y="242" width="192" height="140">
<path d="M45.2104 277.682L31.3495 339.393C27.5789 356.18 38.1311 372.846 54.9187 376.617C57.1596 377.12 59.4493 377.374 61.746 377.374H93.5831C108.126 377.374 121.456 369.271 128.152 356.362L141.592 330.449L121.732 381.852H130.861C140.839 381.852 150.272 377.298 156.477 369.484L162.427 361.992V369.001C162.427 376.099 168.18 381.852 175.278 381.852C182.992 381.852 189.88 377.023 192.511 369.772L195.333 361.992L198.47 368.03C202.883 376.523 211.658 381.852 221.229 381.852C212.151 354.768 206.958 333.026 205.653 316.624C204.347 300.222 205.84 275.494 210.131 242.439H171.578L102.066 284.107L45.2104 277.682Z" fill="white"/>
</mask>
<g mask="url(#mask5_37_25898)">
<path d="M45.2104 277.682L31.3495 339.393C27.5789 356.18 38.1311 372.846 54.9187 376.617C57.1596 377.12 59.4493 377.374 61.746 377.374H93.5831C108.126 377.374 121.456 369.271 128.152 356.362L141.592 330.449L121.732 381.852H130.861C140.839 381.852 150.272 377.298 156.477 369.484L162.427 361.992V369.001C162.427 376.099 168.18 381.852 175.278 381.852C182.992 381.852 189.88 377.023 192.511 369.772L195.333 361.992L198.47 368.03C202.883 376.523 211.658 381.852 221.229 381.852C212.151 354.768 206.958 333.026 205.653 316.624C204.347 300.222 205.84 275.494 210.131 242.439H171.578L102.066 284.107L45.2104 277.682Z" fill="#9AACD3"/>
</g>
<path d="M91.4971 214.757C93.5642 212.689 95.1163 211.675 96.0088 211.675H124.242C124.672 211.675 125.021 211.326 125.021 210.896C125.021 210.466 124.672 210.117 124.242 210.117H96.0088C94.5648 210.117 92.7419 211.309 90.3956 213.655C90.0914 213.959 90.0914 214.452 90.3956 214.757C90.6998 215.061 91.1929 215.061 91.4971 214.757Z" fill="#7181A1"/>
<mask id="mask6_37_25898" style="mask-type:alpha" maskUnits="userSpaceOnUse" x="90" y="189" width="19" height="12">
<path d="M108.325 192.009H90.313C91.2557 190.379 93.0176 189.283 95.0355 189.283H103.603C105.621 189.283 107.383 190.379 108.325 192.009V192.009ZM108.078 197.85C107.092 199.263 105.456 200.187 103.603 200.187H95.0355C93.1829 200.187 91.546 199.263 90.5608 197.85H108.078Z" fill="white"/>
</mask>
<g mask="url(#mask6_37_25898)">
<path d="M108.325 192.009H90.313C91.2557 190.379 93.0176 189.283 95.0355 189.283H103.603C105.621 189.283 107.383 190.379 108.325 192.009V192.009ZM108.078 197.85C107.092 199.263 105.456 200.187 103.603 200.187H95.0355C93.1829 200.187 91.546 199.263 90.5608 197.85H108.078Z" fill="#7181A1"/>
</g>
<path fill-rule="evenodd" clip-rule="evenodd" d="M208.353 222.844L175.765 243.224L223.219 252.439L244 236.937C248.415 233.643 251.915 229.276 254.168 224.249L259.806 211.671C261.663 207.526 261.458 202.748 259.252 198.778L256.049 193.016L255.891 193.114C255.278 189.657 254.549 185.545 253.704 180.777C253.238 178.148 251.623 175.865 249.3 174.549L247.126 173.317L243.362 171.515L243.019 168.156L220.643 148.361C220.577 148.303 220.51 148.246 220.442 148.191C217.747 146.002 213.788 146.411 211.599 149.106C209.633 151.526 209.525 154.88 211.157 157.39C209.431 157.736 207.884 158.861 207.066 160.571C206.948 160.818 206.847 161.073 206.765 161.334C205.628 164.954 207.411 168.848 210.894 170.352L229.941 178.575C231.097 190.026 231.674 195.752 231.674 195.752C231.674 195.752 212.513 210.084 206.875 211.078C203.116 211.741 200.242 210.869 198.253 208.463L206.227 184.766C206.25 184.698 206.272 184.629 206.293 184.56C207.368 180.992 205.347 177.229 201.779 176.154C198.048 175.03 194.1 177.076 192.867 180.771C185.527 202.759 182.217 215.796 182.937 219.882C184.123 226.603 175.446 243.334 175.446 243.334L208.353 222.844Z" fill="#B0BFDC"/>
<mask id="mask7_37_25898" style="mask-type:alpha" maskUnits="userSpaceOnUse" x="119" y="189" width="6" height="12">
<path d="M124.632 192.009H119.909C120.852 190.379 122.614 189.283 124.632 189.283V192.009ZM124.632 200.187C122.779 200.187 121.142 199.263 120.157 197.85H124.632V200.187Z" fill="white"/>
</mask>
<g mask="url(#mask7_37_25898)">
<path d="M124.632 192.009H119.909C120.852 190.379 122.614 189.283 124.632 189.283V192.009ZM124.632 200.187C122.779 200.187 121.142 199.263 120.157 197.85H124.632V200.187Z" fill="#7181A1"/>
</g>
<path fill-rule="evenodd" clip-rule="evenodd" d="M226.248 139.26L200.38 138.494C197.609 138.412 195.218 140.422 194.822 143.165L186.518 200.771L218.856 204.806L223.927 201.293L231.489 145.441C231.893 142.457 229.801 139.711 226.818 139.307C226.629 139.281 226.438 139.266 226.248 139.26Z" fill="#2B2B2B"/>
<path d="M205.847 199.797C203.589 199.797 201.758 197.967 201.758 195.708C201.758 193.45 203.589 191.619 205.847 191.619C208.105 191.619 209.936 193.45 209.936 195.708C209.936 197.967 208.105 199.797 205.847 199.797ZM205.847 198.24C207.245 198.24 208.378 197.106 208.378 195.708C208.378 194.31 207.245 193.177 205.847 193.177C204.449 193.177 203.316 194.31 203.316 195.708C203.316 197.106 204.449 198.24 205.847 198.24ZM216.698 141.713C216.811 141.717 216.874 141.712 216.902 141.705C216.901 141.705 216.9 141.705 216.911 141.695C216.955 141.659 217.004 141.585 217.045 141.47C217.107 141.301 217.133 141.128 217.149 140.66L217.151 140.599L217.62 138.69L218.754 138.969L218.315 140.761C218.293 141.3 218.249 141.577 218.144 141.868C218.035 142.168 217.873 142.417 217.655 142.597C217.387 142.818 217.107 142.897 216.657 142.881L208.923 142.611C208.473 142.595 208.2 142.497 207.948 142.258C207.743 142.063 207.598 141.804 207.511 141.497C207.423 141.188 207.399 140.899 207.42 140.32L207.422 140.26L207.89 138.35L209.025 138.629L208.585 140.42C208.572 140.844 208.587 141.011 208.635 141.177C208.668 141.294 208.711 141.371 208.752 141.41C208.763 141.421 208.762 141.421 208.76 141.42C208.788 141.43 208.851 141.439 208.964 141.443L216.698 141.713Z" fill="white"/>
<mask id="mask8_37_25898" style="mask-type:alpha" maskUnits="userSpaceOnUse" x="11" y="377" width="106" height="38">
<path d="M34.0163 390.076L11.3306 414.953H116.864L106.142 396.64C99.1552 384.707 86.3642 377.374 72.5361 377.374H62.7907C51.8399 377.374 41.3951 381.985 34.0163 390.076Z" fill="white"/>
</mask>
<g mask="url(#mask8_37_25898)">
<path d="M34.0163 390.076L11.3306 414.953H116.864L106.142 396.64C99.1552 384.707 86.3642 377.374 72.5361 377.374H62.7907C51.8399 377.374 41.3951 381.985 34.0163 390.076Z" fill="#DFE9FF"/>
<path d="M23.9961 397.341L25.2615 395.978C34.3712 404.525 43.939 408.778 53.9923 408.778C62.0604 408.778 71.0154 404.888 76.8702 398.328C83.8307 390.529 86.0443 379.76 82.1588 366.786L83.9346 366.248C88.0036 379.835 85.6507 391.282 78.2505 399.573C72.0384 406.533 62.5793 410.642 53.9923 410.642C43.4396 410.642 33.4317 406.194 23.9961 397.341ZM105.218 392.822L105.924 394.637C94.6511 399.021 89.9976 406.185 91.7326 416.347L89.8133 416.675C87.9137 405.549 93.1255 397.525 105.218 392.822Z" fill="white"/>
<path d="M26.7217 389.838C34.6014 397.203 42.9677 400.907 51.7929 400.907C58.9841 400.907 66.8992 397.482 72.0989 391.679C78.293 384.766 80.262 375.223 76.8613 363.912L75.0793 364.443C78.2979 375.149 76.467 384.021 70.7108 390.446C65.8692 395.849 58.4612 399.055 51.7929 399.055C43.471 399.055 35.5475 395.547 27.9949 388.487L26.7217 389.838Z" fill="white"/>
</g>
<path fill-rule="evenodd" clip-rule="evenodd" d="M126.579 162.997C128.331 170.006 126.579 173.317 120.738 173.317C116.843 173.317 112.949 171.499 109.055 167.865C111.132 171.499 109.963 173.317 105.55 173.317C98.9298 173.317 97.9563 169.205 97.9563 168.838C97.9563 168.472 97.7173 162.215 99.1245 160.855C99.8478 160.156 103.161 160.156 109.065 160.855C119.573 157.61 125.411 158.324 126.579 162.997Z" fill="#CBDBFE"/>
<path fill-rule="evenodd" clip-rule="evenodd" d="M79.6897 182.126C81.4421 189.136 79.6897 192.446 73.8483 192.446C69.9541 192.446 66.0599 190.629 62.1657 186.994C64.2426 190.629 63.0743 192.446 58.6609 192.446C52.0407 192.446 51.0671 188.334 51.0671 187.968C51.0671 187.601 50.8281 181.344 52.2354 179.985C52.9587 179.286 56.2723 179.286 62.1763 179.985C72.6836 176.739 78.5214 177.453 79.6897 182.126Z" fill="#CBDBFE"/>
<g filter="url(#filter0_b_37_25898)">
<path fill-rule="evenodd" clip-rule="evenodd" d="M217.347 132.817L210.105 115.813H209.16C194.553 115.813 182.711 103.972 182.711 89.364V58.8213C182.711 44.2137 194.553 32.3719 209.16 32.3719H291.027C305.635 32.3719 317.477 44.2137 317.477 58.8213V89.364C317.477 103.972 305.635 115.813 291.027 115.813H229.942L217.347 132.817Z" fill="#326BFF" fill-opacity="0.6"/>
</g>
<path fill-rule="evenodd" clip-rule="evenodd" d="M173.978 241.029C173.978 241.029 183.518 224.775 182.687 218.001C182.181 213.884 186.169 201.038 194.649 179.464C196.075 175.838 200.124 174.002 203.791 175.319C207.532 176.663 209.678 180.591 208.788 184.465L203.992 205.352C203.47 207.623 204.888 209.887 207.159 210.408C207.559 210.5 207.969 210.533 208.378 210.507" fill="#B0BFDC"/>
<path fill-rule="evenodd" clip-rule="evenodd" d="M103.888 185.298L90.9929 187.612C90.7812 187.65 90.5788 187.509 90.5408 187.297C90.5298 187.236 90.5337 187.173 90.5522 187.113L91.2385 184.902C91.7778 183.164 93.2311 181.865 95.0182 181.523L99.5777 180.652L101.656 181.689L101.599 180.265L102.676 180.059C103.945 179.817 105.17 180.649 105.412 181.918C105.435 182.035 105.448 182.154 105.452 182.273L105.489 183.312C105.524 184.28 104.841 185.126 103.888 185.298ZM120.955 180.767C120.133 180.505 119.581 179.735 119.598 178.872L119.634 177.111C119.637 176.943 119.666 176.777 119.72 176.618C120.011 175.761 120.941 175.302 121.798 175.592L121.766 177.016L122.938 175.979L124.433 176.485C126.107 177.053 127.337 178.488 127.642 180.229L128.025 182.419C128.036 182.481 128.032 182.544 128.013 182.604C127.948 182.809 127.729 182.922 127.524 182.857L120.955 180.767Z" fill="#CBDBFE"/>
<path fill-rule="evenodd" clip-rule="evenodd" d="M113.647 224.658L120.246 221.149L121.044 227.504C121.199 228.739 120.809 229.981 119.975 230.905C118.391 232.663 115.683 232.803 113.925 231.22L112.444 229.885L111.652 233.328C111.265 235.012 110.196 236.459 108.7 237.325C105.721 239.048 101.91 238.03 100.187 235.051L97.0165 229.57L92.8288 238.242C92.0067 239.945 90.456 241.182 88.6133 241.606C85.2596 242.376 81.9161 240.282 81.1455 236.929L79.3067 228.927L76.2518 233.661C75.2291 235.246 73.5433 236.283 71.6673 236.48C68.2449 236.839 65.1792 234.356 64.8197 230.934L64.042 223.531C70.3776 222.964 74.8024 222.972 77.3166 223.552C77.9743 223.704 78.5293 223.901 78.9817 224.145C80.4501 223.475 82.4912 223.277 85.1051 223.552C87.4686 223.8 90.6682 224.474 94.7037 225.572L94.3179 224.905L114.319 221.737L113.647 224.658Z" fill="#CBDBFE"/>
<path d="M80.4417 237.169C81.3087 240.942 85.0701 243.298 88.843 242.431C90.916 241.955 92.6606 240.563 93.5855 238.648L97.1338 231.299L99.5677 235.507C101.506 238.858 105.794 240.004 109.145 238.065C110.828 237.092 112.031 235.464 112.467 233.569L112.962 231.416L113.459 231.865C113.779 232.153 114.271 232.127 114.559 231.807C114.847 231.488 114.822 230.996 114.502 230.708L113.021 229.373C112.58 228.975 111.874 229.198 111.741 229.777L110.949 233.22C110.61 234.693 109.674 235.96 108.365 236.717C105.759 238.225 102.424 237.334 100.916 234.727L97.7459 229.247C97.433 228.706 96.6422 228.735 96.3704 229.298L92.1827 237.97C91.4634 239.46 90.1065 240.543 88.4942 240.913C85.5597 241.587 82.6341 239.755 81.9598 236.821L80.1211 228.819C79.9668 228.147 79.081 227.992 78.7076 228.571L75.6527 233.305C74.7578 234.692 73.2827 235.599 71.6412 235.772C68.6466 236.086 65.9641 233.914 65.6495 230.919L64.8719 223.516C64.8269 223.088 64.4437 222.778 64.0159 222.823C63.5881 222.867 63.2777 223.251 63.3227 223.679L64.1004 231.082C64.5048 234.932 67.9538 237.725 71.8039 237.321C73.9145 237.099 75.8109 235.933 76.9615 234.15L79.0161 230.966L80.4417 237.169Z" fill="#B0BFDC"/>
<path fill-rule="evenodd" clip-rule="evenodd" d="M65.797 154.908L47.9147 157.499L40.207 137.902C39.9708 137.302 39.2926 137.006 38.6922 137.242C38.2114 137.432 37.9119 137.914 37.9557 138.429L39.9584 161.968C40.159 164.325 42.2325 166.074 44.5898 165.873C44.609 165.872 44.6281 165.87 44.6472 165.868L65.8751 163.773C68.5282 163.512 70.4891 161.183 70.2953 158.524C70.137 156.352 68.2479 154.72 66.0758 154.878C65.9826 154.885 65.8896 154.895 65.797 154.908Z" fill="#DFE9FF"/>
<path fill-rule="evenodd" clip-rule="evenodd" d="M56.2955 222.29L99.7295 282.355L173.375 222.291C174.253 221.575 175.17 220.906 176.12 220.288L182.896 215.884C184.969 214.537 187.675 214.685 189.589 216.25C191.669 217.952 193.108 220.31 193.671 222.938L193.97 224.331L199.21 221.764C201.817 220.487 204.966 221.566 206.242 224.173C206.959 225.636 206.957 227.348 206.237 228.809L212.73 227.701C213.72 227.532 214.726 227.476 215.729 227.534L231.542 228.457C234.334 228.62 236.464 231.014 236.301 233.806C236.284 234.105 236.24 234.403 236.17 234.695L234.171 243.005C233.984 243.783 233.6 244.5 233.057 245.087L218.333 260.995C217.409 261.994 216.422 262.931 215.377 263.802L100.797 359.285C97.7129 361.855 93.2199 361.807 90.1921 359.171L54.6954 328.273C50.0303 324.213 47.3521 318.331 47.3521 312.146L45.5082 313.633C43.0785 315.592 39.597 315.54 37.2271 313.509C34.7264 311.365 33.6705 307.981 34.5088 304.796L36.0589 298.905L34.101 300.547C31.8558 302.431 28.5092 302.137 26.6262 299.892C26.6226 299.888 26.619 299.883 26.6154 299.879C24.4936 297.333 23.8225 293.878 24.8367 290.723L26.7127 284.886L24.2399 286.535C21.9494 288.062 18.8954 287.737 16.9772 285.762C14.9839 283.71 14.464 280.641 15.6703 278.047L40.9161 223.762C43.0021 219.276 48.3291 217.331 52.8145 219.417C54.2011 220.062 55.3995 221.051 56.2955 222.29Z" fill="#CBDBFE"/>
<path d="M81.686 256.417C81.4481 256.059 80.9647 255.961 80.6064 256.199C80.248 256.437 80.1505 256.92 80.3884 257.279L97.3283 282.786C97.5771 283.16 98.0904 283.247 98.4484 282.975L108.184 275.576C108.526 275.316 108.593 274.827 108.333 274.485C108.073 274.142 107.584 274.076 107.241 274.336L98.1667 281.233L81.686 256.417Z" fill="#B0BFDC"/>
<path d="M213.217 352.434C213.186 352.322 212.894 351.354 212.791 351.004C212.518 350.083 212.247 349.135 211.959 348.079C211.145 345.096 210.353 341.846 209.611 338.303C206.642 324.13 205.263 309.335 206.338 294.791C206.37 294.362 206.048 293.988 205.619 293.957C205.19 293.925 204.816 294.247 204.785 294.676C203.698 309.382 205.09 324.317 208.086 338.622C208.835 342.197 209.634 345.478 210.456 348.489C210.748 349.556 211.021 350.514 211.297 351.445C211.404 351.809 211.691 352.76 211.718 352.857C211.834 353.271 212.265 353.512 212.679 353.395C213.093 353.279 213.334 352.848 213.217 352.434Z" fill="#CBDBFE"/>
<path d="M85.5624 96.5385L91.8275 114.763C91.9673 115.17 92.4104 115.386 92.8172 115.246C93.224 115.107 93.4404 114.663 93.3005 114.257L87.0355 96.0321C86.8956 95.6253 86.4525 95.4089 86.0457 95.5487C85.639 95.6886 85.4226 96.1317 85.5624 96.5385Z" fill="#7181A1"/>
<mask id="mask9_37_25898" style="mask-type:alpha" maskUnits="userSpaceOnUse" x="58" y="181" width="17" height="22">
<path d="M71.0227 202.884C62.6414 202.536 58.4507 199.082 58.4507 192.522C58.4507 185.774 62.8847 182.235 71.7527 181.904C71.5313 182.318 71.3678 182.88 71.3016 183.636C71.0817 186.15 72.2707 187.387 74.8687 187.346C70.354 190.886 68.0616 194.063 67.9915 196.877C67.9301 199.344 69.0087 201.567 71.0227 202.884Z" fill="white"/>
</mask>
<g mask="url(#mask9_37_25898)">
<path d="M71.0227 202.884C62.6414 202.536 58.4507 199.082 58.4507 192.522C58.4507 185.774 62.8847 182.235 71.7527 181.904C71.5313 182.318 71.3678 182.88 71.3016 183.636C71.0817 186.15 72.2707 187.387 74.8687 187.346C70.354 190.886 68.0616 194.063 67.9915 196.877C67.9301 199.344 69.0087 201.567 71.0227 202.884Z" fill="#B0BFDC"/>
</g>
<path d="M242.074 169.358C242.002 168.934 242.288 168.532 242.712 168.46C243.136 168.388 243.538 168.673 243.61 169.097L247.92 194.478C248.554 198.211 247.206 202.006 244.358 204.502L234.399 213.234C234.075 213.517 233.583 213.485 233.3 213.162C233.016 212.838 233.049 212.346 233.372 212.063L243.331 203.331C245.772 201.191 246.928 197.939 246.384 194.739L242.074 169.358ZM255.119 193.493C255.051 193.068 255.341 192.67 255.766 192.602C256.191 192.535 256.59 192.825 256.657 193.25L257.796 200.461C258.221 203.154 257.622 205.909 256.117 208.182L248.749 219.309C248.511 219.668 248.028 219.766 247.669 219.528C247.311 219.291 247.213 218.808 247.45 218.449L254.818 207.322C256.108 205.373 256.622 203.012 256.257 200.704L255.119 193.493ZM230.548 177.785C230.661 178.2 230.416 178.628 230.001 178.741C229.586 178.854 229.158 178.61 229.045 178.195L227.877 173.911C227.764 173.496 228.008 173.068 228.423 172.955C228.838 172.841 229.266 173.086 229.38 173.501L230.548 177.785ZM198.838 175.624C198.854 175.195 199.215 174.859 199.645 174.875C200.075 174.891 200.41 175.252 200.395 175.682C200.123 183.081 197.315 187.434 191.979 188.489C191.557 188.573 191.147 188.298 191.064 187.876C190.98 187.454 191.255 187.045 191.677 186.961C196.206 186.065 198.59 182.37 198.838 175.624Z" fill="#7181A1"/>
<path d="M233.701 77.7315V83.6663H228.234V88.1173H221.206V83.6663H201.918V77.7315L221.206 60.7863H228.234V77.7315H233.701ZM209.493 77.7315H221.206V67.8143L209.493 77.7315ZM251.544 88.5078C240.689 88.5078 235.536 83.5101 235.536 74.4128C235.536 65.3545 240.689 60.3959 251.544 60.3959C262.359 60.3959 267.552 65.3935 267.552 74.4128C267.552 83.4711 262.359 88.5078 251.544 88.5078ZM251.544 82.6121C257.713 82.6121 260.524 79.5276 260.524 74.4128C260.524 69.337 257.713 66.2916 251.544 66.2916C245.375 66.2916 242.564 69.298 242.564 74.4128C242.564 79.5666 245.375 82.6121 251.544 82.6121ZM301.638 77.7315V83.6663H296.171V88.1173H289.143V83.6663H269.856V77.7315L289.143 60.7863H296.171V77.7315H301.638ZM277.43 77.7315H289.143V67.8143L277.43 77.7315Z" fill="white"/>
<defs>
<filter id="filter0_b_37_25898" x="-217.289" y="-367.628" width="934.766" height="900.445" filterUnits="userSpaceOnUse" color-interpolation-filters="sRGB">
<feFlood flood-opacity="0" result="BackgroundImageFix"/>
<feGaussianBlur in="BackgroundImage" stdDeviation="200"/>
<feComposite in2="SourceAlpha" operator="in" result="effect1_backgroundBlur_37_25898"/>
<feBlend mode="normal" in="SourceGraphic" in2="effect1_backgroundBlur_37_25898" result="shape"/>
</filter>
</defs>
</svg>
